<svg viewBox="0 0 37 37" fill="none" xmlns="http://www.w3.org/2000/svg">
<path d="M31.6055 31.0676H26.2029V22.6069C26.2029 20.5893 26.1669 17.9921 23.3931 17.9921C20.5792 17.9921 20.1486 20.1902 20.1486 22.4599V31.067H14.7462V13.6683H19.9326V16.0459H20.0053C21.0613 14.2404 23.032 13.158 25.1225 13.2356C30.5981 13.2356 31.6078 16.8372 31.6078 21.523L31.6055 31.0676ZM8.65036 11.2899H8.6497C6.92979 11.2899 5.51452 9.8748 5.51452 8.15486C5.51452 6.43492 6.92979 5.01963 8.6497 5.01963C10.3695 5.01963 11.7846 6.4346 11.7849 8.15421V8.15486C11.7849 9.87448 10.3699 11.2898 8.65036 11.2899ZM11.3516 31.0676H5.94343V13.6683H11.3516V31.0676ZM34.2987 0.00251546H3.22853C1.77005 -0.0139566 0.555862 1.17203 0.538086 2.63053V33.8302C0.55521 35.2895 1.76923 36.4768 3.22853 36.4611H34.2987C35.7616 36.4796 36.9799 35.2924 36.9994 33.8302V2.62841C36.9799 1.16681 35.76 -0.0190136 34.2987 0.000230973V0.00251546Z"/>
</svg>
