<svg viewBox="0 0 45 30" fill="none" xmlns="http://www.w3.org/2000/svg">
<path d="M17.7621 13.4104C17.7621 13.4104 21.9254 13.0763 21.9254 7.82122C21.9254 2.55934 18.5191 0 14.2018 0H0V29.3801H14.2018C14.2018 29.3801 22.8738 29.6733 22.8738 20.7066C22.8716 20.7043 23.2501 13.4104 17.7621 13.4104ZM6.25812 5.21869H14.2018C14.2018 5.21869 16.1338 5.21869 16.1338 8.27353C16.1338 11.3329 14.9984 11.7761 13.7089 11.7761H6.25812V5.21869ZM13.7991 24.1569H6.25812V16.3039H14.2018C14.2018 16.3039 17.08 16.2629 17.08 20.3383C17.08 23.775 14.9301 24.1319 13.7991 24.1569ZM34.9896 6.86063C24.4912 6.86063 24.5 18.1504 24.5 18.1504C24.5 18.1504 23.7827 29.381 34.9896 29.381C34.9896 29.381 44.3262 29.9583 44.3262 21.5689H39.5248C39.5248 21.5689 39.6832 24.7306 35.1502 24.7306C35.1502 24.7306 30.3444 25.076 30.3444 19.6164H44.478C44.4802 19.6141 46.0381 6.86063 34.9896 6.86063ZM39.2607 15.6933H30.296C30.296 15.6933 30.8813 11.1656 35.0974 11.1656C39.3135 11.1656 39.2607 15.6933 39.2607 15.6933ZM40.3763 1.11462H29.1166V4.7377H40.3763V1.11462Z"/>
</svg>
