<?xml version="1.0" encoding="UTF-8"?>
<svg id="Calque_2"
	xmlns="http://www.w3.org/2000/svg" viewBox="0 0 39.55 40.95">
	<g id="Calque_1-2">
		<g>
			<g>
				<path d="M9.15,13.12v3.03c0,1.75-.48,2.75-2.09,2.75H0V7.92H7.19c.78,0,1.42,.74,1.42,1.66,0,.43-.14,.84-.42,1.17-.08,.09-.17,.18-.27,.25,.7,.22,1.23,.91,1.23,2.11ZM.33,10.85H2.95v-2.58H.33v2.58Zm8.47,2.12c0-.95-.51-1.72-1.58-1.72h0s-.02,0-.03,0H.33v4.33H7.06c1.35,0,1.73-.65,1.73-1.62v-.99Z"/>
				<path d="M19.34,14.75v4.15H10.41V7.92h2.84v8.53c0,1.61,.28,2.03,1.39,2.03h1.86v-3.73h2.84Z"/>
				<path d="M20.64,11.24v2.71c-.03,.42,.09,.85,.36,1.18,.37,.34,.87,.5,1.37,.45h7.06v3.32h-9.15V10.68c0-1.66,.59-2.75,1.81-2.75h7.33v3.32h-8.79Zm3.19-.4v-2.58h-1.68c-1.49,0-1.51,1.74-1.51,2.58h3.19Z"/>
				<path d="M39.55,7.92v10.97h-4.91c-2.55,0-4.01-.52-4.01-3.8V7.92h2.84v8.53c0,1.75,.62,2.03,1.39,2.03h1.86V7.92h2.84Z"/>
				<path d="M9.15,27.24v3.03c0,1.75-.48,2.75-2.09,2.75H0v-10.97H7.19c.78,0,1.42,.74,1.42,1.66,0,.43-.14,.84-.42,1.17-.08,.09-.17,.18-.27,.25,.7,.22,1.23,.91,1.23,2.11ZM.33,24.98H2.95v-2.58H.33v2.58Zm8.47,2.12c0-.95-.51-1.72-1.58-1.72h0s-.02,0-.03,0H.33v4.33H7.06c1.35,0,1.73-.65,1.73-1.62v-.99Z"/>
				<path d="M19.34,28.88v4.15H10.41v-10.97h2.84v8.53c0,1.61,.28,2.03,1.39,2.03h1.86v-3.73h2.84Z"/>
				<path d="M20.64,25.37v2.71c-.03,.42,.09,.85,.36,1.18,.37,.34,.87,.5,1.37,.45h7.06v3.32h-9.15v-8.22c0-1.66,.59-2.75,1.81-2.75h7.33v3.32h-8.79Zm3.19-.4v-2.58h-1.68c-1.49,0-1.51,1.74-1.51,2.58h3.19Z"/>
				<path d="M39.55,22.05v10.97h-4.91c-2.55,0-4.01-.52-4.01-3.8v-7.17h2.84v8.53c0,1.75,.62,2.03,1.39,2.03h1.86v-10.56h2.84Z"/>
			</g>
			<rect width="39.55" height="40.95" style="fill:none;"/>
		</g>
	</g>
</svg>