<svg viewBox="0 0 285 285" fill="none" xmlns="http://www.w3.org/2000/svg">
	<path d="M78.0634 114.744C65.8889 115.94 75.3143 109.96 81.2052 103.183C88.667 94.4123 78.4561 85.6418 64.318 86.0404C56.0707 86.0404 32.5071 84.4458 49.0016 121.521C58.0343 142.65 17.5835 156.205 33.6853 166.969C73.7434 194.476 136.972 108.764 78.0634 114.744ZM54.1071 94.0136C61.1761 88.0337 78.0634 82.0538 72.5652 102.784C69.4234 114.744 61.1761 105.973 60.7834 113.548C60.3907 119.927 75.707 118.731 73.3507 125.109C70.9943 132.684 58.4271 124.711 54.4998 123.116C40.3616 117.933 47.4307 100.392 54.1071 94.0136ZM56.0707 167.766C31.3289 171.354 41.5398 128.697 58.4271 141.853C81.5979 159.793 74.9216 137.069 76.8852 121.521C78.0634 112.751 93.3797 115.541 94.9506 125.906C97.307 136.272 94.5579 161.387 56.0707 167.766Z"/>
	<path d="M64.6808 206.751C53.3383 222.693 55.685 206.353 60.3785 198.78C63.1163 194.396 70.9387 183.237 68.592 178.056C64.2897 168.491 49.036 180.447 34.5645 169.686C20.4842 158.926 10.3151 176.86 31.4356 211.534C43.1692 231.063 25.9599 238.236 23.222 257.367C20.0931 278.091 28.6977 262.149 47.8626 258.164C107.313 245.809 109.269 144.977 64.6808 206.751ZM40.4313 182.838C54.1205 177.657 76.4144 181.643 56.8584 194.795C50.2093 199.577 48.6449 201.57 50.9916 209.541C53.3383 217.911 39.258 209.94 35.7379 207.548C26.7421 201.172 26.7421 187.621 40.4313 182.838ZM47.8626 255.772C24.0043 262.946 34.9557 209.143 50.2093 224.686C56.0762 230.664 63.1163 231.461 63.5074 219.106C63.8986 208.744 76.0233 209.541 79.5434 219.505C83.0634 229.468 72.1121 248.997 47.8626 255.772Z"/>
	<path d="M80.7773 186.782C72.9028 193.577 69.3593 179.587 77.6275 170.394C84.7145 162.4 110.7 134.022 110.7 112.038C110.7 90.0549 119.362 91.6537 124.48 93.6522C129.599 95.6507 125.268 110.839 108.732 133.222C92.1952 155.605 75.2651 176.789 87.0768 175.99C98.1011 175.191 121.331 148.011 131.174 151.209C141.804 154.806 135.111 171.194 118.181 193.577C101.645 215.96 84.7145 237.144 96.5262 236.344C108.338 235.545 133.93 207.566 140.229 213.961C145.348 218.758 141.411 230.749 127.237 228.75C112.275 226.352 101.645 238.743 89.8329 249.534C80.3835 257.928 78.0212 248.335 88.6517 232.347C94.1638 223.954 130.78 168.795 123.299 162.8C118.575 158.803 111.094 160.002 80.7773 186.782Z" />
	<path d="M167.038 49.0072C156.043 45.4286 127.379 61.7311 126.201 86.7814C125.023 111.832 155.65 61.7311 165.467 72.4669C178.817 85.9861 139.158 90.7576 129.735 103.879C119.918 117.001 121.489 134.098 127.771 138.472C143.085 149.208 187.063 124.953 182.744 105.867C179.603 91.9505 158.006 101.493 161.54 117.796C165.467 134.894 133.269 143.244 128.557 136.484C121.489 126.544 155.65 101.096 164.289 90.7576C176.069 77.2384 166.252 70.8764 163.111 68.8883C157.221 64.9121 149.368 68.4907 139.944 76.0455C126.201 86.7814 144.263 48.6096 156.828 56.562C169.393 64.5145 174.105 50.9953 167.038 49.0072Z"/>
	<path d="M187.69 129.535C176.69 125.954 149.191 143.459 139.763 157.781C127.192 177.673 173.94 144.254 184.547 154.598C195.154 164.942 160.191 169.318 148.012 172.501C121.299 178.866 119.335 197.166 129.156 202.338C136.62 206.317 149.977 204.327 150.369 212.284C150.369 220.241 159.798 219.843 163.726 215.467C166.869 212.284 166.476 207.908 164.512 204.725C159.798 197.564 135.834 205.521 130.727 199.553C126.406 193.984 137.013 168.125 154.691 176.479C167.655 182.447 182.19 176.479 185.726 172.103C197.511 158.576 181.011 147.835 175.119 147.835C168.048 147.835 163.333 150.62 151.548 158.974C137.798 168.92 165.69 129.535 177.869 137.093C190.047 144.652 195.154 131.922 187.69 129.535Z"/>
	<path d="M205.247 46.5251C210.343 43.343 222.886 46.1273 217.398 66.4135C212.303 84.7109 168.4 117.726 211.127 122.499C219.358 123.294 226.414 121.306 227.59 120.112C231.118 115.339 220.534 108.577 217.398 101.417C215.046 96.2462 220.142 89.0863 225.63 88.6886C256.205 84.7109 254.245 75.5622 242.486 63.2314C223.67 43.343 276.981 31.0121 246.013 97.0417C224.454 143.183 192.311 136.819 186.431 115.737C180.552 94.6551 215.438 93.064 203.287 67.6068C197.407 52.8894 200.543 49.3095 205.247 46.5251Z"/>
	<path d="M191.847 143.429C196.551 139.853 208.703 137.469 207.135 157.337C205.567 179.193 171.855 183.564 178.127 201.445C180.479 208.201 198.903 218.532 216.15 206.214C224.382 200.253 217.718 189.922 219.678 179.987C221.246 171.245 253.39 169.258 245.158 152.171C238.494 137.866 213.406 156.145 210.271 147.006C203.215 125.15 263.974 112.434 245.158 174.822C231.046 221.711 173.423 222.109 165.583 202.638C157.743 183.166 207.527 183.961 193.415 160.914C187.535 150.582 187.927 146.608 191.847 143.429Z"/>
</svg>
