<svg viewBox="0 0 36 36" fill="none" xmlns="http://www.w3.org/2000/svg">
<path d="M30.8069 5.20375C28.0896 2.48641 25.1872 4.24015 23.3699 6.06328L14.79 14.6335L6.21016 23.2134C4.39282 25.0307 2.4926 27.7905 5.35256 30.6504C8.21252 33.5104 10.9723 31.614 12.7877 29.7909L21.3695 21.211L29.9493 12.6312C31.7648 10.8138 33.5339 7.91146 30.8069 5.20375Z" fill="black"/>
<path d="M14.4116 4.49229L18.0444 8.12505L21.7446 4.43255C21.9952 4.18009 22.2496 3.9469 22.5155 3.7272C22.1185 1.76724 21.0065 0 18.0444 0C15.0823 0 13.9645 1.77302 13.5791 3.73105C13.8547 3.97195 14.1322 4.21092 14.4116 4.49229Z" fill="black"/>
<path d="M21.7429 31.4815L18.0465 27.7852L14.4137 31.4121C14.1381 31.6877 13.8645 31.9402 13.5908 32.183C14.0071 34.1757 15.1846 35.9989 18.0446 35.9989C20.9045 35.9989 22.0917 34.1661 22.5002 32.1676C22.2478 31.9479 21.9934 31.734 21.7429 31.4834" fill="black"/>
<path d="M12.8698 13.2969H5.86445C3.2955 13.2969 0 14.1082 0 17.9511C0 20.8187 1.83469 21.9982 3.83319 22.4087C4.07024 22.135 12.8698 13.2969 12.8698 13.2969Z" fill="black"/>
<path d="M32.2661 13.4902C32.0445 13.7485 23.2275 22.6078 23.2275 22.6078H30.1327C32.7016 22.6078 35.9991 22.0007 35.9991 17.9555C35.9991 14.9896 34.226 13.8757 32.2661 13.4902Z" fill="black"/>
<path d="M15.1652 11.0024L16.4179 9.7516L12.7851 6.11884C10.9697 4.30342 8.20998 2.40128 5.35003 5.26124C3.25324 7.35803 3.71769 9.39893 4.83161 11.0563C5.16887 11.0313 15.1652 11.0024 15.1652 11.0024Z" fill="black"/>
<path d="M20.9236 24.9056L19.6689 26.1602L23.3672 29.8585C25.1846 31.6758 28.0869 33.4334 30.8043 30.7161C32.8317 28.6886 32.3672 26.5591 31.2456 24.8535C30.8852 24.8805 20.9236 24.9056 20.9236 24.9056Z" fill="black"/>
</svg>
