<?xml version="1.0" encoding="UTF-8"?>
<svg id="Calque_2"
	xmlns="http://www.w3.org/2000/svg" viewBox="0 0 46.16 40.95">
	<g id="Calque_1-2">
		<g>
			<g>
				<path d="M8.36,21.5h-1.01c.37,.76,.42,1.52,.14,2.29-.29,.78-.93,1.21-1.7,1.51,.24,.08,.45,.14,.65,.22,1.03,.43,1.53,1.26,1.48,2.47-.05,1.16-.74,2.06-1.91,2.48-.54,.2-1.1,.29-1.68,.29-1.39,0-2.78,0-4.16,0-.05,0-.1,0-.16,0v-10.72H.18c1.19,0,2.39,0,3.58,0,.65,0,1.3,.06,1.93,.25,.74,.23,1.14,.52,1.64,1.17v-1h0c.34,0,.68,0,1.03,0v1.03h0ZM1.87,29.26c.06,0,.09,.01,.13,.01,.63,0,1.26,0,1.88,0,.29,0,.58-.03,.87-.09,.79-.15,1.19-.6,1.25-1.34,.06-.71-.21-1.23-.77-1.51-.36-.18-.75-.25-1.14-.26-.71-.01-1.42,0-2.12,0-.03,0-.06,.01-.1,.02v3.18Zm0-4.66h.19c.57,0,1.14,0,1.71,0,.27,0,.54-.03,.8-.08,.77-.14,1.19-.54,1.26-1.22,.09-.81-.21-1.39-1-1.62-.2-.06-.4-.1-.6-.11-.76-.02-1.52-.02-2.28-.03-.03,0-.05,.01-.08,.02v3.03Z"/>
				<path d="M26.11,10.02h2.09v-1.77h7.38v1.56h-5.5v2.28c.07,0,.13,.01,.22,.02v.6h4.95v1.55h-1.83v.96h0c-.34,0-.68,0-1.04,0v-.94h-2.29v3.11h.99c1.42,0,2.84,0,4.27,0,.06,0,.11-.05,.17-.07h0c.35,0,.69,0,1.06,0v1.06h0c-.27,0-.54,0-.83,0v.58h-7.55v-7.92h-2.08v-1.02h0Z"/>
				<path d="M20.91,31.96h-2.09v-.89h-1.37v-1.12c.1-.03,.2-.06,.3-.08h0c.11,0,.22,0,.34,0v-8.78h-.64v-1.11h7.2c0,.35,0,.68,0,1.02,0,.11,.04,.15,.15,.15,.17,0,.35,0,.52,0v1.13h-1.22v-.59h-1.33v-.58h-2.77v3.53h2.11v-.56h1.21v1.16h.67v1.12h-1.23v-.56h-2.77v4.1h3.45v-.57h1.33v-.58h1.21v1.14h-.65v.58h-.69v.6h-3.74v.89h0Z"/>
				<path d="M39.51,17.52h1.32v.57h2.12v-.57h.67v-1.17h.66v-6.48h-.65v-.58h-.66v-1.13h3.21v1.12h-.64v7.62h-.68v1.16h-.68v.59h-.65v.57h-3.89v-.57h-.67v-.59h-.66v-1.16h-.67v-7.62h-.66v-1.13h3.2v1.12h-.65v8.24Z"/>
				<path d="M17.75,29.87h-1.49v.6h-.66v.58h-6.55v-1.12h.64v-6.33h-.31v-1.04h0c.11,0,.21,0,.31,0v-1.47h-.64v-1.12h3.2v1.13h-.64v3.56h.94v1.02h-.93v4.22h2.78v-.58h1.27v-.49s.08-.09,.12-.09c.36,0,.72-.04,1.08,.01,.14,.02,.28,.08,.43,.08,.15,0,.3,0,.46,0v1.03h0Z"/>
				<path d="M42.85,37.17v1.05h-11.51v-1.05h0c3.84,0,7.68,0,11.53,0h0Z"/>
				<path d="M4.18,3.75v-1.02H12.54v1.02h0c-2.79,0-5.58,0-8.37,0h0Z"/>
				<path d="M43.87,29.87h1.05v5.21h-1.05v-5.21h0Z"/>
				<path d="M2.09,11.04H1.07V5.84h1.01v5.21h0Z"/>
				<path d="M3.15,14.2h-1.06c0-1.06,0-2.11,0-3.15h0c.35,0,.7,0,1.06,0v3.15h0Z"/>
				<path d="M29.27,36.14h-3.15v-1.06h0c1.05,0,2.1,0,3.15,0v1.06h0Z"/>
				<path d="M12.54,3.75h3.12v1.06h0c-1.04,0-2.07,0-3.12,0v-1.06h0Z"/>
				<path d="M36.57,18.38h1.02v1.02h1.07v1.07h0c-.69,0-1.39,0-2.09,0v-2.09h0Z"/>
				<path d="M15.66,4.81h3.15v1.03h0c-1.05,0-2.1,0-3.15,0v-1.03h0Z"/>
				<path d="M42.85,26.75h1.03v3.12h0c-.34,0-.68,0-1.03,0v-3.12h0Z"/>
				<path d="M18.81,5.84h2.09v1.06h0c-.69,0-1.39,0-2.09,0v-1.06h0Z"/>
				<path d="M22.99,7.93h2.09v1.06h0c-.69,0-1.39,0-2.09,0v-1.06h0Z"/>
				<path d="M24.03,34.05h-2.09v-1.06h0c.69,0,1.39,0,2.09,0v1.06h0Z"/>
				<path d="M40.75,23.6h1.03v2.09h0c-.34,0-.68,0-1.03,0v-2.09h0Z"/>
				<path d="M20.9,6.9h2.09v1.03h0c-.69,0-1.39,0-2.09,0v-1.03h0Z"/>
				<path d="M4.18,16.29h-1.03c0-.7,0-1.4,0-2.09,0,0,0,0,0,0h1.03v2.09h0Z"/>
				<path d="M43.87,35.08v2.09h-1.02v-2.09h1.02Z"/>
				<path d="M6.27,19.41h-1.03v-2.09h0c.34,0,.68,0,1.03,0v2.09h0Z"/>
				<path d="M26.12,35.08h-2.09v-1.03h0c.69,0,1.39,0,2.09,0v1.03h0Z"/>
				<path d="M38.66,20.48h1.03v2.09h0c-.34,0-.68,0-1.03,0v-2.09h0Z"/>
				<path d="M31.33,37.17h-2.06v-1.03h0c.68,0,1.37,0,2.06,0v1.03h0Z"/>
				<path d="M7.33,20.47h-1.06v-1.06h0c.35,0,.7,0,1.06,0v1.06h0Z"/>
				<path d="M41.78,25.69h1.06v1.06h0c-.35,0-.7,0-1.06,0v-1.06h0Z"/>
				<path d="M33.42,15.23h1.06v1.06h0c-.35,0-.7,0-1.06,0v-1.06h0Z"/>
				<path d="M3.15,4.81v-1.06c.35,0,.69,0,1.03,0h0v1.06h-1.02Z"/>
				<path d="M39.69,22.57h1.06v1.03h0c-.35,0-.7,0-1.06,0v-1.03h0Z"/>
				<path d="M9.39,22.56h-1.03v-1.06s0,0,0,0h1.03v1.06h0Z"/>
				<path d="M2.09,5.84v-1.03c.36,0,.71,0,1.06,0h0v1.02h-1.06Z"/>
				<path d="M5.24,17.32h-1.06v-1.03h0c.35,0,.7,0,1.06,0v1.03h0Z"/>
				<path d="M21.94,32.98h-1.03v-1.03h0c.34,0,.68,0,1.03,0v1.03h0Z"/>
				<path d="M34.48,16.29h1.03v1.03h0c-.34,0-.68,0-1.03,0v-1.03h0Z"/>
				<path d="M25.09,8.99h1.03v1.03h0c-.34,0-.68,0-1.03,0v-1.03h0Z"/>
				<path d="M8.93,19.23v-1.12h.64V9.28h-.65v-1.13h6.56v.58h.65v.59h.68v2.89h-.66v.58h-.6s0,.02,0,.03h.59v.59h.67v.58h.66v3.49h-.64v.58h-.69v.58h-.65v.58h-6.56Zm5.22-5.82v.55h-2.55v-1.13h2v-.59h1.31v-2.37h-.66v-.58h-2.77v8.79h2.78v-.58h1.32v-3.55h-.66v-.56h-.77Z"/>
				<path d="M27.45,20.07h1.86c0,.07,0,.14,0,.2,0,2.15,0,4.3,0,6.44,0,.38,.06,.78,.17,1.15,.26,.92,.97,1.47,1.93,1.52,.4,.02,.79,0,1.17-.12,.83-.27,1.25-.9,1.41-1.72,.05-.27,.08-.54,.08-.82,0-2.15,0-4.3,0-6.45v-.21h1.85c0,.07,0,.13,0,.19,0,2.23,0,4.46,0,6.68,0,.59-.09,1.16-.3,1.71-.4,1.09-1.16,1.8-2.27,2.13-1.08,.32-2.17,.32-3.25,.02-1.38-.38-2.2-1.31-2.52-2.69-.09-.4-.14-.82-.14-1.24-.01-2.22,0-4.43,0-6.65v-.17Z"/>
				<path d="M19.41,8.24h1.85v9.15h5.42v1.58h-7.27V8.24Z"/>
				<path d="M15.66,28.84h-1.03v-1.07h1.03v1.07Z"/>
				<path d="M13.57,26.75h-1.03v-1.07h1.03v1.07Z"/>
				<path d="M14.63,27.78h-1.07v-1.03h1.07v1.03Z"/>
			</g>
			<rect width="46.16" height="40.95" style="fill:none;"/>
		</g>
	</g>
</svg>