<?xml version="1.0" encoding="UTF-8"?>
<svg id="Calque_2"
	xmlns="http://www.w3.org/2000/svg" viewBox="0 0 86.88 22.19">
	<g id="Calque_1-2">
		<g>
			<path d="M9.61,14.2c-.12-.39,.03-.77,.03-1.02,0-.23-.23-.37-.49-.37-.88,0-1.88,1.04-1.82,1.98,.04,.93,.9,1.6,1.71,1.6,.72,0,1.7-.48,1.7-1.13,0-.83-.97-.55-1.12-1.06Z"/>
			<path d="M26.52,11.34c.65,0,1.42-1.73,.76-2.16-.04-.03-.09-.04-.13-.04-.58,0-1.35,1.9-.77,2.16,.04,.03,.09,.04,.14,.04Z"/>
			<path d="M52.12,14.2c-.12-.39,.03-.77,.03-1.02,0-.23-.23-.37-.49-.37-.88,0-1.88,1.04-1.82,1.98,.04,.93,.9,1.6,1.71,1.6,.72,0,1.69-.48,1.69-1.13,0-.83-.97-.55-1.11-1.06Z"/>
			<path d="M69.01,11.34c.64,0,1.42-1.73,.75-2.16-.04-.03-.08-.04-.13-.04-.58,0-1.35,1.9-.78,2.16,.05,.03,.1,.04,.15,.04Z"/>
			<path d="M86.63,15.69c-.35-.79-1.03-1.31-1.83-1.46,.05-.41,.04-.81,.04-1.19,0-.25-.02-.67,.03-.8,.05-.19,.2-.47,.34-.75,.3-.61,.69-1.36,.81-2.23,.19-1.37-.25-2.21-.66-2.67-.5-.57-1.22-.9-2-.9-.31,0-.62,.05-.91,.15-.28-.54-.73-.96-1.3-1.19-.37-.15-.75-.22-1.13-.22h0c-1.32,0-2.08,.91-2.49,1.4-.08,.1-.21,.24-.27,.29-.13,.05-.39,.13-.58,.19-.83,.24-2.59,.76-3.1,2.34-.31-1.95-1.73-3.28-3.6-3.28-2.52,0-4.24,1.8-4.63,4.82-.28,.05-.71,.16-1.15,.38,.28-.46,.51-.92,.63-1.38,.14-.58,.16-1.01,.18-1.33,0-.1,0-.26,.02-.29,.03-.06,.21-.26,.32-.39,.42-.47,1.05-1.19,1.13-2.33,.07-.95-.29-1.61-.5-1.97,0-.62-.15-2.7-2.41-2.86-.08,0-.15,0-.21,0-1.46,0-2.34,.99-2.93,1.64-.19,.21-.4,.45-.53,.54-.07,.04-.18,.08-.45,.16-.42,.13-1.01,.29-1.72,.72-1.22,.75-1.89,2.04-1.76,3.38,.11,1.05,.72,1.92,1.62,2.25,.26,.1,.51,.14,.76,.14-.16,.38-.27,.73-.33,1.06-.13,.71-.09,1.34-.05,1.85,.02,.35,.04,.64,0,.89-.21,.22-.57,.61-.77,1.22-.02-.16-.04-.31-.08-.46-.29-1.25-1.24-1.81-1.74-2.1-.04-.02-.07-.04-.1-.06,0-.03-.02-.05-.03-.08-.18-.54-.68-2.08-2.31-2.31,.1-.19,.18-.38,.24-.57,.32-1.05,.41-2.08,.26-3.1,.04-.06,.08-.14,.12-.2,.26-.43,.64-1.06,.66-1.89,.03-.75-.22-1.44-.7-1.94-.35-.37-.97-.8-2-.8h-.17c-1.22,.07-1.99,.74-2.46,1.14-.04,.03-.08,.06-.12,.1h-.03c-1.09,0-1.98,.33-2.58,.97-.51,.54-.77,1.26-.72,2.04,.07,1.05,.55,1.91,1.29,2.41-.35,.62-.63,1.27-.74,1.93-.32,1.41-.22,2.57-.14,3.5,.08,.96,.1,1.37-.11,1.75-.1,.07-.4,.21-.6,.29-.36,.15-.83,.36-1.27,.69-.38-.5-.92-.83-1.53-.94,.05-.41,.04-.81,.04-1.19,0-.25-.02-.67,.02-.8,.05-.19,.21-.47,.34-.75,.3-.61,.69-1.36,.81-2.23,.2-1.37-.25-2.21-.66-2.67-.5-.57-1.22-.9-1.99-.9-.32,0-.63,.05-.92,.15-.28-.54-.73-.96-1.3-1.19-.37-.15-.75-.22-1.13-.22-1.33,0-2.09,.91-2.5,1.4-.08,.1-.2,.24-.27,.29-.12,.05-.39,.13-.58,.19-.83,.24-2.59,.76-3.1,2.34-.3-1.95-1.72-3.28-3.59-3.28-2.52,0-4.24,1.8-4.63,4.82-.27,.06-.71,.16-1.15,.38,.28-.47,.51-.93,.63-1.39,.14-.58,.16-1.01,.18-1.33,0-.1,0-.26,.02-.29,.03-.06,.21-.26,.32-.39,.42-.47,1.05-1.19,1.13-2.33,.07-.95-.29-1.61-.5-1.97,0-.62-.15-2.7-2.41-2.86-.08,0-.15,0-.21,0-1.46,0-2.34,.99-2.93,1.64-.19,.21-.4,.45-.53,.54-.07,.04-.18,.08-.45,.16-.43,.13-1.01,.29-1.72,.72-1.22,.75-1.89,2.04-1.76,3.38,.1,1.05,.72,1.92,1.62,2.25,.26,.1,.51,.14,.76,.14-.16,.38-.28,.73-.33,1.06-.13,.71-.09,1.34-.05,1.85,.02,.35,.04,.64,0,.89-.22,.23-.59,.63-.79,1.28,0-.18-.04-.35-.08-.51-.29-1.25-1.24-1.81-1.74-2.1-.04-.02-.06-.04-.1-.06,0-.03-.02-.05-.03-.08-.18-.54-.68-2.08-2.31-2.31,.1-.19,.18-.38,.24-.57,.32-1.05,.41-2.08,.26-3.1,.04-.06,.08-.14,.12-.2,.26-.43,.64-1.06,.66-1.89,.03-.75-.22-1.44-.7-1.94-.35-.37-.97-.8-2-.8h-.17c-1.22,.07-1.99,.74-2.46,1.14-.04,.03-.07,.06-.12,.1h-.03c-1.09,0-1.98,.33-2.58,.97-.51,.54-.77,1.26-.72,2.04,.07,1.05,.56,1.91,1.29,2.41-.34,.62-.63,1.27-.74,1.93-.31,1.41-.21,2.57-.14,3.5,.08,.96,.1,1.37-.11,1.75-.1,.07-.4,.21-.6,.29-.78,.34-2.09,.89-2.49,2.47-.24,.99-.04,1.98,.54,2.73,.6,.77,1.55,1.22,2.63,1.22,.21,0,.43-.02,.64-.05,1.22-.21,1.99-.95,2.49-1.55,.48,.56,1.3,1.4,2.63,1.4s2.14-1.01,2.56-1.6v.02c.16,1.2,1.02,2.11,2.18,2.31,.2,.04,.38,.05,.57,.05,.86,0,1.5-.34,1.88-.55,0,0,.03,0,.04-.02,.03,0,.05,0,.08,0,.18,.02,.36,.03,.55,.03,.23,0,.45-.02,.67-.05,.53-.09,.92-.29,1.22-.43,.19-.09,.29-.14,.43-.17,.09,0,.18,0,.27,.02,.19,.02,.41,.04,.68,.04,.34,0,.66-.04,.97-.12,.55-.14,1.03-.42,1.4-.8,.69,.75,1.73,1.18,3.02,1.18,1.95,0,2.93-1.32,3.47-2.04h0c.33,.16,.76,.3,1.3,.3,.78,0,1.57-.3,2.15-.9,.62,.67,1.48,1.05,2.45,1.05,.12,0,.24,0,.37-.02,0,.68,.18,1.34,.55,1.88,.55,.82,1.45,1.29,2.48,1.29,1.47,0,2.35-.83,2.88-1.32,.1-.1,.21-.2,.31-.28,.04-.04,.2-.11,.37-.19,.35-.17,.8-.38,1.25-.76,0,.02,.03,.03,.04,.04,.6,.77,1.55,1.22,2.63,1.22,.21,0,.42-.02,.64-.05,1.22-.21,1.99-.95,2.49-1.55,.48,.56,1.3,1.4,2.63,1.4s2.12-.97,2.54-1.57c.16,1.2,1.02,2.1,2.18,2.31,.2,.04,.38,.05,.57,.05,.86,0,1.5-.34,1.88-.55,.02,0,.03,0,.04-.02,.03,0,.05,0,.08,0,.18,.02,.36,.03,.55,.03,.23,0,.45-.02,.67-.05,.53-.09,.92-.29,1.22-.43,.2-.09,.3-.14,.43-.17,.09,0,.18,0,.27,.02,.19,.02,.41,.04,.68,.04,.34,0,.66-.04,.98-.12,.55-.14,1.03-.42,1.4-.8,.69,.75,1.72,1.17,3.01,1.17,1.95,0,2.93-1.32,3.46-2.04h0c.33,.16,.76,.3,1.3,.3,.78,0,1.57-.3,2.16-.9,.62,.67,1.48,1.05,2.44,1.05,.13,0,.25,0,.38-.02,0,.68,.18,1.34,.54,1.88,.55,.82,1.46,1.29,2.48,1.29,1.47,0,2.36-.83,2.89-1.32,.1-.1,.2-.2,.31-.28,.04-.04,.2-.11,.36-.19,.46-.21,1.07-.5,1.64-1.13,.87-.95,1.13-2.45,.63-3.58Zm-13.11-5.31c.18,.72,.63,1.3,1.23,1.65v.08c0,.43,.05,.75,.13,1.01-.56-.56-1.3-.91-2.07-1.02,.32-.53,.58-1.1,.71-1.72Zm-42.5,.02c.19,.71,.63,1.3,1.24,1.64v.08c0,.43,.05,.75,.13,1.01-.56-.56-1.31-.91-2.07-1.02,.32-.52,.57-1.09,.7-1.71Zm-20.35,6.88c-.55,.44-.92,1.55-1.64,1.55-1.15,0-1.46-1.76-2.71-1.85h-.04c-.91,0-1.28,1.79-2.66,2.01-.12,.03-.24,.04-.35,.04-.98,0-1.57-.7-1.34-1.61,.32-1.27,2.18-1.06,2.87-2.24,1-1.72-.09-3.33,.49-5.86,.28-1.71,2.75-4.16,2.24-4.76-.04-.04-.07-.06-.12-.06-.32,0-.88,1.08-1.64,1.13h-.04c-.56,0-.91-.46-.96-1.11-.04-.8,.71-1.03,1.43-1.03,.07,0,.14,0,.21,0h.07c.89,0,1.3-1.19,2.42-1.25h.06c.65,0,.84,.36,.82,.8,0,.74-.95,1.39-.79,2.25,.12,.63,.13,1.46-.16,2.43-.3,.95-1.74,2.13-2.04,3.29-.23,.71,.28,1.15,.76,1.15,.7,0,1.6-1.46,2.41-1.46,.95,0,.83,1.3,1.3,1.78,.46,.49,1.3,.61,1.48,1.37,.21,.84-.19,2.36-.74,2.85-.46,.39-.9,.23-1.35,.58Zm9.98,1.15c-.18,.04-.35,.06-.51,.06-.33,0-.63-.06-.95-.06-.14,0-.29,0-.44,.04-.67,.17-1,.49-1.53,.58-.13,.03-.24,.03-.35,.03-.26,0-.48-.04-.74-.04-.08,0-.16,0-.26,.02-.43,.06-.88,.55-1.55,.55-.07,0-.15,0-.23-.02-1.02-.19-.79-1.79,.07-2.2,.71-.35,1.92-.07,2.39-.7,.39-.54-.26-1.48-.14-2.11,.12-.63,.65-.71,.81-1.32,.28-1.06-.07-1.98,.12-3.06,.18-1.04,1.71-3.26,2.2-4.09,.37-.63,.14-1.35-.24-1.35-.13,0-.27,.08-.41,.26-.6,.77-.79,1.39-1.3,1.57-.12,.04-.21,.06-.29,.06-.22,0-.35-.12-.52-.12-.04,0-.1,0-.16,.04-.31,.12-.51,.37-.76,.37-.04,0-.09,0-.14-.02-.55-.21-.67-1.58,.46-2.27,.95-.58,1.55-.49,2.23-.93,.88-.59,1.43-1.86,2.42-1.86,.03,0,.05,0,.08,0,.97,.07,.57,1.02,.69,1.43,.12,.45,.54,.74,.49,1.39-.07,.92-1.05,1.32-1.37,2.27-.19,.55-.04,.99-.23,1.73-.23,.88-1.57,2.46-1.81,3.75-.12,.67,.16,1.25,.23,1.8,.09,.71-.51,1.66-.12,2.17,.09,.12,.2,.15,.31,.15,.33,0,.79-.29,1.3-.29,.07,0,.14,0,.22,.03,1.15,.21,1.2,1.81,.02,2.1Zm9.66-1.41c-.68,0-.76-.6-1.38-.6h-.04c-1.39,.04-1.5,2.33-3.36,2.33-1.64,0-2.08-.95-2.08-1.89,0-1.09,.79-1.6,.79-2.24,0-.31-.16-.38-.4-.38-.17,0-.37,.03-.59,.03-.1,0-.2,0-.3-.03-.64-.13-1.09-.58-.95-1.27,.28-1.53,2.5-.3,2.66-2.27,.12-1.21,.58-3.45,2.8-3.45,1.09,0,1.72,.9,1.79,2.04,.21,2.91-4.86,4.98-3.75,6.41,.16,.21,.35,.3,.55,.3,.96,0,2.31-2.06,3.76-2.06,.83,0,1.73,.6,1.73,1.64s-.64,1.43-1.22,1.43Zm11.8,.97c-.55,.6-1.22,.7-1.78,1.11-.63,.49-1.06,1.21-2.04,1.21-1.12,0-1.32-1.18-1.02-1.92,.3-.74,1.81-2.97,1.02-3.32-.04-.02-.09-.03-.13-.03-.45,0-.91,.94-1.59,1.47-.55,.42-1.14,.65-1.67,.65-.47,0-.88-.18-1.15-.55-.81-1.13,.44-1.64,.58-2.85,.13-1.18-.21-.81-.21-1.64s1.29-1.67,.99-2.06c-.06-.07-.13-.1-.21-.1-.33,0-.8,.48-1.15,.55-.06,0-.12,0-.17,0-.48,0-.8-.36-.8-.91,0-1.35,2.14-1.35,2.97-1.88,.69-.46,1.01-1.41,1.75-1.41,.13,0,.27,.03,.42,.09,.74,.3,.49,1.48-.44,2.69-.44,.57-.21,1.82-.6,2.52-.51,.88-1.34,1.55-1.44,2.29-.06,.57,.19,.91,.56,.91,.26,0,.58-.16,.89-.54,.68-.79,.65-1.69,1.25-2.39,.38-.42,.77-.51,1.12-1.28,.29-.64,.13-1.47,.51-2.29,.21-.47,.66-.75,1.07-.75,.5,0,.94,.42,.8,1.42-.13,.95-.83,1.88-1.08,2.69-.26,.8,.02,1.92-.19,2.59-.19,.76-.81,1.66-.97,2.17-.16,.54-.04,.88,.32,.88,.16,0,.36-.06,.61-.21,.55-.32,.95-1.04,1.53-1.04,.81,0,.79,1.34,.25,1.92Zm11.06-.71c-.55,.44-.92,1.55-1.64,1.55-1.15,0-1.46-1.76-2.71-1.85h-.05c-.91,0-1.27,1.79-2.65,2.01-.13,.03-.24,.04-.35,.04-.98,0-1.57-.7-1.34-1.61,.32-1.27,2.18-1.06,2.87-2.24,1-1.72-.09-3.33,.49-5.86,.28-1.71,2.75-4.16,2.24-4.76-.04-.04-.07-.06-.12-.06-.32,0-.88,1.08-1.64,1.13h-.04c-.55,0-.9-.46-.95-1.11-.04-.8,.71-1.03,1.43-1.03,.07,0,.14,0,.21,0h.07c.89,0,1.3-1.19,2.42-1.25h.06c.65,0,.84,.36,.82,.8,0,.74-.96,1.39-.79,2.25,.12,.63,.13,1.46-.17,2.43-.29,.95-1.73,2.13-2.04,3.29-.22,.71,.29,1.15,.77,1.15,.7,0,1.6-1.46,2.4-1.46,.96,0,.84,1.3,1.3,1.78,.46,.49,1.3,.61,1.47,1.37,.21,.84-.18,2.36-.73,2.85-.46,.39-.91,.23-1.35,.58Zm9.96,1.15c-.18,.04-.35,.06-.51,.06-.33,0-.63-.06-.95-.06-.14,0-.29,0-.44,.04-.67,.17-1,.49-1.53,.58-.13,.03-.24,.03-.35,.03-.26,0-.48-.04-.74-.04-.08,0-.16,0-.25,.02-.44,.06-.89,.55-1.55,.55-.07,0-.15,0-.23-.02-1.02-.19-.79-1.79,.07-2.2,.71-.35,1.92-.07,2.39-.7,.39-.54-.26-1.48-.14-2.11,.12-.63,.65-.71,.81-1.32,.28-1.06-.07-1.98,.12-3.06,.18-1.04,1.72-3.26,2.2-4.09,.37-.63,.14-1.35-.24-1.35-.13,0-.27,.08-.41,.26-.6,.77-.79,1.39-1.3,1.57-.12,.04-.21,.06-.29,.06-.22,0-.35-.12-.51-.12-.05,0-.11,0-.17,.04-.31,.12-.51,.37-.76,.37-.04,0-.09,0-.14-.02-.55-.21-.67-1.58,.46-2.27,.95-.58,1.55-.49,2.23-.93,.88-.59,1.43-1.86,2.42-1.86,.03,0,.05,0,.08,0,.97,.07,.58,1.02,.7,1.43,.11,.45,.53,.74,.48,1.39-.07,.92-1.05,1.32-1.37,2.27-.19,.55-.04,.99-.23,1.73-.23,.88-1.57,2.46-1.81,3.75-.12,.67,.16,1.25,.23,1.8,.09,.71-.51,1.66-.12,2.17,.09,.12,.2,.15,.31,.15,.34,0,.79-.29,1.3-.29,.07,0,.14,0,.22,.03,1.15,.21,1.2,1.81,.02,2.1Zm9.66-1.41c-.68,0-.76-.6-1.38-.6h-.04c-1.39,.04-1.5,2.33-3.36,2.33-1.64,0-2.08-.95-2.08-1.89,0-1.09,.79-1.6,.79-2.24,0-.31-.16-.38-.4-.38-.17,0-.38,.03-.59,.03-.1,0-.2,0-.3-.03-.64-.13-1.09-.58-.95-1.27,.28-1.53,2.5-.3,2.66-2.27,.12-1.21,.57-3.45,2.8-3.45,1.09,0,1.72,.9,1.79,2.04,.21,2.91-4.86,4.98-3.75,6.41,.16,.21,.34,.3,.54,.3,.97,0,2.31-2.06,3.77-2.06,.83,0,1.73,.6,1.73,1.64s-.64,1.43-1.22,1.43Zm11.81,.97c-.55,.6-1.22,.7-1.79,1.11-.62,.49-1.06,1.21-2.04,1.21-1.11,0-1.31-1.18-1.01-1.92,.29-.74,1.81-2.97,1.01-3.32-.04-.02-.08-.03-.13-.03-.45,0-.9,.94-1.58,1.47-.55,.42-1.14,.65-1.68,.65-.46,0-.88-.18-1.14-.55-.81-1.13,.44-1.64,.57-2.85,.14-1.18-.21-.81-.21-1.64s1.3-1.67,1-2.06c-.06-.07-.13-.1-.21-.1-.33,0-.8,.48-1.15,.55-.06,0-.12,0-.17,0-.49,0-.8-.36-.8-.91,0-1.35,2.13-1.35,2.96-1.88,.7-.46,1.02-1.41,1.76-1.41,.13,0,.27,.03,.42,.09,.74,.3,.49,1.48-.44,2.69-.44,.57-.21,1.82-.61,2.52-.51,.88-1.34,1.55-1.43,2.29-.07,.57,.18,.91,.55,.91,.27,0,.59-.16,.9-.54,.67-.79,.65-1.69,1.25-2.39,.37-.42,.76-.51,1.11-1.28,.3-.64,.14-1.47,.51-2.29,.22-.47,.67-.75,1.07-.75,.51,0,.95,.42,.8,1.42-.13,.95-.83,1.88-1.09,2.69-.25,.8,.03,1.92-.18,2.59-.19,.76-.81,1.66-.97,2.17-.16,.54-.04,.88,.32,.88,.15,0,.36-.06,.6-.21,.56-.32,.96-1.04,1.54-1.04,.8,0,.79,1.34,.25,1.92Z"/>
		</g>
	</g>
</svg>