<?xml version="1.0" encoding="UTF-8"?>
<svg id="Calque_2"
	xmlns="http://www.w3.org/2000/svg" viewBox="0 0 63.86 44.09">
	<g id="Calque_1-2">
		<g>
			<path d="M35.39,13.69l7.45-1.99,5.97-7.61-13.32,3.6-8.47,10.79,13.33-3.63,1.6-2.03-7.48,2,.88-1.12h.04Zm4.32-5.53l1.62-.47-2.72,3.52-1.64,.41,2.75-3.46Z"/>
			<path d="M14.31,17.81l2.03-2.6-4.83-3.52-5.93,1.61,4.87,3.56-.07,.1L0,30.15l13.35-3.6,8.44-10.8-7.48,2.05Zm-5.19,8.26l-1.65,.47,5.2-6.67,1.66-.46-.23,.29-4.98,6.37Z"/>
			<path d="M27.33,23.87l-13.35,3.63L1.16,43.83l13.34-3.63,2.7-3.44-1.64-1.19,3.3-.91,8.48-10.79Zm-17.07,15.85l-1.65,.47,2.74-3.52h.05s1.59-.42,1.59-.42l-2.72,3.47Zm4.36-5.53l-1.65,.46,5.24-6.66,1.65-.47-5.24,6.67Z"/>
			<polygon points="34.88 21.81 25.38 33.91 18.39 42.56 12.75 44.09 28.98 23.41 34.88 21.81"/>
			<polygon points="38.08 26.96 42.44 21.43 40.84 21.83 40.79 21.84 35.61 28.5 43.08 26.49 41.44 28.56 28.08 32.17 36.56 21.37 49.92 17.76 43.95 25.36 38.08 26.96"/>
			<polygon points="39.14 16.42 36 20.42 15.11 26.07 31.32 5.42 37.14 3.83 24.29 20.2 24.08 20.47 39.14 16.42"/>
			<polygon points="63.86 0 51.03 16.37 37.71 19.95 50.55 3.63 56.38 2.05 45.41 16.03 45.18 16.32 46.84 15.86 58.03 1.59 63.86 0"/>
			<polygon points="40.22 30.09 37.11 34.1 23.62 37.72 26.87 33.74 40.22 30.09"/>
			<polygon points="60.62 19.24 52.15 30.04 38.83 33.64 47.31 22.84 53.14 21.3 46.52 29.69 46.3 29.97 47.91 29.57 47.94 29.56 54.79 20.84 60.62 19.24"/>
		</g>
	</g>
</svg>