<svg width="36" height="36" viewBox="0 0 36 36" fill="none" xmlns="http://www.w3.org/2000/svg">
<path d="M17.9993 3.47873C22.729 3.47873 23.2891 3.4968 25.1571 3.58202C26.8842 3.66084 27.822 3.94934 28.4462 4.19191C29.2156 4.47587 29.9115 4.92865 30.4829 5.51695C31.0712 6.08831 31.524 6.78426 31.8079 7.55363C32.0505 8.17779 32.3391 9.11569 32.4178 10.8427C32.503 12.7106 32.5211 13.2707 32.5211 18.0005C32.5211 22.7303 32.503 23.2903 32.4178 25.1583C32.339 26.8853 32.0504 27.8232 31.8079 28.4474C31.5132 29.2113 31.0619 29.9051 30.4829 30.4841C29.9039 31.0631 29.2101 31.5144 28.4462 31.8091C27.8221 32.0517 26.8842 32.3403 25.1571 32.419C23.2896 32.5042 22.7295 32.5223 17.9993 32.5223C13.2692 32.5223 12.7092 32.5042 10.8415 32.419C9.1145 32.3402 8.17667 32.0516 7.55244 31.8091C6.78307 31.5252 6.08712 31.0724 5.51577 30.4841C4.92746 29.9127 4.47469 29.2168 4.19073 28.4474C3.94815 27.8232 3.65959 26.8853 3.58084 25.1583C3.49562 23.2906 3.47755 22.7303 3.47755 18.0005C3.47755 13.2707 3.49562 12.7107 3.58084 10.8427C3.65966 9.11569 3.94815 8.17786 4.19073 7.55363C4.47472 6.78422 4.92754 6.08825 5.51591 5.51688C6.08727 4.92858 6.78321 4.4758 7.55258 4.19184C8.17674 3.94927 9.11464 3.6607 10.8417 3.58195C12.7095 3.49673 13.2697 3.47866 17.9995 3.47866L17.9993 3.47873ZM17.9995 0.287109C13.1888 0.287109 12.5854 0.3075 10.6964 0.393703C8.81096 0.479766 7.5234 0.779156 6.39671 1.21706C5.2148 1.66183 4.14413 2.35906 3.25937 3.26013C2.35809 4.14484 1.66067 5.21551 1.21573 6.39748C0.77818 7.52424 0.478789 8.8118 0.393078 10.6972C0.306523 12.5862 0.286133 13.1897 0.286133 18.0003C0.286133 22.8109 0.306523 23.4144 0.393078 25.3034C0.479141 27.1888 0.778531 28.4764 1.21644 29.6031C1.66121 30.785 2.35844 31.8556 3.25951 32.7404C4.14427 33.6415 5.21494 34.3387 6.39685 34.7835C7.52361 35.2214 8.81117 35.5208 10.6965 35.6068C12.5858 35.693 13.189 35.7134 17.9996 35.7134C22.8102 35.7134 23.4137 35.693 25.3027 35.6068C27.1881 35.5208 28.4757 35.2214 29.6024 34.7835C30.779 34.3284 31.8476 33.6325 32.7397 32.7404C33.6318 31.8483 34.3277 30.7797 34.7828 29.6031C35.2207 28.4763 35.5201 27.1887 35.6061 25.3034C35.6923 23.4141 35.7127 22.8109 35.7127 18.0003C35.7127 13.1897 35.6923 12.5862 35.6061 10.6972C35.5201 8.8118 35.2207 7.52424 34.7828 6.39755C34.338 5.21563 33.6408 4.14497 32.7397 3.2602C31.8549 2.35895 30.7842 1.66158 29.6022 1.21671C28.4754 0.779156 27.1878 0.479766 25.3024 0.394055C23.4134 0.3075 22.81 0.287109 17.9993 0.287109H17.9995Z" fill="black"/>
<path d="M18.0003 8.9043C16.2013 8.9043 14.4427 9.43777 12.9468 10.4372C11.451 11.4367 10.2851 12.8573 9.59669 14.5194C8.90824 16.1815 8.72811 18.0104 9.07908 19.7748C9.43005 21.5393 10.2964 23.16 11.5685 24.4321C12.8405 25.7042 14.4613 26.5705 16.2257 26.9215C17.9902 27.2724 19.8191 27.0923 21.4812 26.4039C23.1432 25.7154 24.5638 24.5496 25.5633 23.0537C26.5628 21.5579 27.0963 19.7993 27.0963 18.0003C27.0963 15.5879 26.1379 13.2743 24.4321 11.5684C22.7263 9.86262 20.4127 8.9043 18.0003 8.9043ZM18.0003 23.9046C16.8325 23.9046 15.691 23.5583 14.72 22.9095C13.7491 22.2607 12.9923 21.3386 12.5454 20.2597C12.0985 19.1808 11.9816 17.9937 12.2095 16.8483C12.4373 15.703 12.9996 14.651 13.8254 13.8252C14.6511 12.9995 15.7032 12.4372 16.8485 12.2094C17.9938 11.9816 19.181 12.0985 20.2599 12.5454C21.3387 12.9923 22.2609 13.749 22.9096 14.72C23.5584 15.691 23.9047 16.8325 23.9047 18.0003C23.9047 19.5662 23.2826 21.068 22.1753 22.1753C21.068 23.2826 19.5662 23.9046 18.0003 23.9046Z" fill="black"/>
<path d="M27.4547 10.6691C28.6286 10.6691 29.5802 9.71743 29.5802 8.54352C29.5802 7.36961 28.6286 6.41797 27.4547 6.41797C26.2807 6.41797 25.3291 7.36961 25.3291 8.54352C25.3291 9.71743 26.2807 10.6691 27.4547 10.6691Z" fill="black"/>
</svg>
