<svg viewBox="0 0 197 42" fill="none" xmlns="http://www.w3.org/2000/svg">
<path d="M181.595 40.5945H2L14.9154 11.8594H31.3818H51.3109H194.511L181.595 40.5945Z" fill="none" stroke="black" stroke-width="2" stroke-miterlimit="10"/>
<path d="M34.1811 40.567L42.9959 29.5728L40.126 20.6695H30.5576L40.127 1H19.7818L2 40.5938L34.1811 40.567Z" fill="none" stroke="black" stroke-width="2" stroke-linecap="round" stroke-linejoin="round"/>
<path d="M40.4268 21.2306L45.4682 11.8633" stroke="black" stroke-width="2" stroke-linecap="round" stroke-linejoin="round"/>
<path d="M56.458 30.7109H42.7715" stroke="black" stroke-width="2" stroke-linecap="round" stroke-linejoin="round"/>
<path d="M82.9326 26.9827L89.9317 12.5273" stroke="black" stroke-width="2" stroke-linecap="round" stroke-linejoin="round"/>
<path d="M90.6279 40.8041L104.227 12.6367" stroke="black" stroke-width="2" stroke-linecap="round" stroke-linejoin="round"/>
<path d="M6.66797 30.2285H18.1491" stroke="black" stroke-width="2" stroke-miterlimit="10" stroke-linecap="round"/>
<path d="M61.3752 40.5995L66.6954 30.7241H53.8154H66.6954L70.9009 22.385L58.2687 22.4781L70.9009 22.385L75.9908 12.3574" fill="none"/>
<path d="M61.3752 40.5995L66.6954 30.7241H53.8154H66.6954L70.9009 22.385L58.2687 22.4781L70.9009 22.385L75.9908 12.3574" stroke="black" stroke-width="2" stroke-linecap="round" stroke-linejoin="round"/>
<path d="M122.859 40.0419L131.21 29.5727L126.729 23.2385H115.905L121.386 12.3848" fill="none"/>
<path d="M122.859 40.0419L131.21 29.5727L126.729 23.2385H115.905L121.386 12.3848" stroke="black" stroke-width="2" stroke-linecap="round" stroke-linejoin="round"/>
<path d="M146.951 11.8627L137.807 30.7099H156.839L152.092 40.5642H118.721L132.85 11.8477L146.951 11.8627Z" fill="none" stroke="black" stroke-width="2" stroke-linecap="round" stroke-linejoin="round"/>
<path d="M173.217 26.9827L180.216 12.5273" stroke="black" stroke-width="2" stroke-linecap="round" stroke-linejoin="round"/>
<path d="M96.0195 31.4688H107.501" stroke="black" stroke-width="2" stroke-miterlimit="10" stroke-linecap="round"/>
<path d="M151.66 40.5995L156.981 30.7241H144.101H156.981L161.186 22.385L150.446 22.4781L161.186 22.385L166.276 12.3574" fill="none"/>
<path d="M151.66 40.5995L156.981 30.7241H144.101H156.981L161.186 22.385L150.446 22.4781L161.186 22.385L166.276 12.3574" stroke="black" stroke-width="2" stroke-linecap="round" stroke-linejoin="round"/>
<path d="M189.303 41.0007C192.213 41.0007 194.573 39.0321 194.573 36.6039C194.573 34.1756 192.213 32.207 189.303 32.207C186.393 32.207 184.033 34.1756 184.033 36.6039C184.033 39.0321 186.393 41.0007 189.303 41.0007Z" fill="none" stroke="black" stroke-width="2" stroke-miterlimit="10"/>
</svg>
