<svg width="15" height="15" viewBox="0 0 15 15"	xmlns="http://www.w3.org/2000/svg">
	<path d="M5.90625 14.0125C6.1125 14.0125 6.30625 13.875 6.3625 13.6625C6.43125 13.4125 6.28125 13.1562 6.025 13.0875C3.4875 12.4188 1.71875 10.1187 1.71875 7.49375C1.71875 4.30625 4.3125 1.7125 7.5 1.7125C10.2063 1.7125 11.9813 3.29375 12.8125 4.25H10.975C10.7188 4.25 10.5062 4.4625 10.5062 4.71875C10.5062 4.975 10.7125 5.19375 10.975 5.19375H13.7438C13.775 5.19375 13.8313 5.1875 13.875 5.175C13.9313 5.15625 13.9813 5.13125 14.025 5.1C14.0813 5.0625 14.125 5.0125 14.1562 4.95625C14.1875 4.9 14.2125 4.83125 14.2188 4.7625C14.2188 4.74375 14.2188 4.73125 14.2188 4.7125V1.875C14.2188 1.61875 14.0062 1.40625 13.75 1.40625C13.4937 1.40625 13.2812 1.61875 13.2812 1.875V3.36875C12.2625 2.275 10.3438 0.78125 7.5 0.78125C3.79375 0.78125 0.78125 3.79375 0.78125 7.5C0.78125 10.55 2.8375 13.225 5.7875 14C5.825 14.0062 5.86875 14.0125 5.90625 14.0125Z" fill="black"/>
	<path d="M7.94382 14.2069C7.95632 14.2069 7.96882 14.2006 7.97507 14.2006C8.65007 14.1569 9.31257 14.0069 9.93757 13.7631C10.1188 13.6944 10.2438 13.5131 10.2376 13.3194C10.2376 13.2631 10.2251 13.2069 10.2063 13.1569C10.1126 12.9194 9.83132 12.8006 9.60007 12.8881C9.05632 13.1006 8.48757 13.2256 7.91257 13.2694C7.66882 13.2819 7.47507 13.4944 7.47507 13.7444L7.48132 13.7694C7.49382 14.0131 7.70007 14.2069 7.94382 14.2069Z" fill="black"/>
	<path d="M11.6813 12.7616C11.5938 12.8241 11.4938 12.8616 11.3876 12.8616C11.2438 12.8616 11.1126 12.7991 11.0188 12.6866C10.9501 12.5991 10.9188 12.4928 10.9188 12.3866C10.9188 12.2428 10.9876 12.1116 11.0938 12.0241C11.5376 11.6741 11.9313 11.2553 12.2563 10.7866C12.2626 10.7803 12.2688 10.7678 12.2751 10.7616V10.7553C12.4188 10.5553 12.7188 10.4991 12.9251 10.6428C13.0563 10.7303 13.1313 10.8741 13.1313 11.0303C13.1313 11.1241 13.1001 11.2116 13.0438 11.2928C12.6688 11.8428 12.2063 12.3366 11.6813 12.7616Z" fill="black"/>
</svg>