<svg width="48" height="32" viewBox="0 0 48 32" fill="none" xmlns="http://www.w3.org/2000/svg">
<path d="M19.3728 14.16C19.3728 14.16 23.9136 13.8072 23.9136 8.2584C23.9136 2.7024 20.1984 0 15.4896 0H0V31.0224H15.4896C15.4896 31.0224 24.948 31.332 24.948 21.864C24.9456 21.8616 25.3584 14.16 19.3728 14.16ZM6.8256 5.5104H15.4896C15.4896 5.5104 17.5968 5.5104 17.5968 8.736C17.5968 11.9664 16.3584 12.4344 14.952 12.4344H6.8256V5.5104ZM15.0504 25.5072H6.8256V17.2152H15.4896C15.4896 17.2152 18.6288 17.172 18.6288 21.4752C18.6288 25.104 16.284 25.4808 15.0504 25.5072ZM37.5576 7.8888C26.1072 7.8888 26.1168 19.8096 26.1168 19.8096C26.1168 19.8096 25.3344 31.668 37.5576 31.668C37.5576 31.668 47.7408 32.2776 47.7408 23.4192H42.504C42.504 23.4192 42.6768 26.7576 37.7328 26.7576C37.7328 26.7576 32.4912 27.1224 32.4912 21.3576H47.9064C47.9088 21.3552 49.608 7.8888 37.5576 7.8888ZM42.216 17.2152H32.4384C32.4384 17.2152 33.0768 12.4344 37.6752 12.4344C42.2736 12.4344 42.216 17.2152 42.216 17.2152ZM43.4328 1.8216H31.152V5.6472H43.4328V1.8216Z"/>
</svg>
