<?xml version="1.0" encoding="UTF-8"?>
<svg id="Calque_2"
	xmlns="http://www.w3.org/2000/svg" viewBox="0 0 24.99 40.95">
	<g id="Calque_1-2">
		<g>
			<g>
				<g>
					<g>
						<path d="M5.5,37.91c.11,.08,.24,.14,.37,.19l-.37-.19Z"/>
						<path d="M24.38,5.61c-.16-.13-.33-.23-.52-.29l-4.21-2.18s-.03-.02-.04-.03c-.39-.32-.9-.45-1.39-.35L2.57,5.84C1.08,6.14,0,7.44,0,8.96v25.06c0,.51,.23,.99,.62,1.31,.17,.14,.37,.25,.58,.31l4.3,2.27,.37,.19s.04,.01,.06,.02c.28,.1,.59,.12,.88,.06l16.53-3.28c.96-.19,1.66-1.04,1.66-2.02V6.91c0-.5-.22-.98-.61-1.3Zm-.12,27.27c0,.64-.45,1.18-1.07,1.31l-16.53,3.28c-.29,.06-.58-.02-.81-.2-.22-.18-.35-.46-.35-.75V11.47c0-1.17,.83-2.18,1.98-2.41l12.01-2.36,.73-.14,2.91-.57c.06-.01,.12-.02,.19-.02,.22,0,.43,.08,.6,.22,.22,.18,.35,.45,.35,.73v25.97Z"/>
					</g>
					<path d="M5.93,38.14l-.06-.03s.04,.01,.06,.02h0Z"/>
				</g>
				<g>
					<polygon points="11.47 16.36 10.4 16.57 10.4 14.72 11.47 14.51 11.47 16.36"/>
					<polygon points="18.55 14.87 17.48 15.08 17.48 13.23 18.55 13.02 18.55 14.87"/>
					<polygon points="15.42 19.95 14.34 20.16 14.34 15.27 15.42 15.05 15.42 19.95"/>
					<polygon points="7.61 26.38 6.54 26.59 6.54 11.7 7.61 11.49 7.61 26.38"/>
					<polygon points="23.22 23.28 22.15 23.5 22.15 8.61 23.22 8.39 23.22 23.28"/>
					<polygon points="14.34 20.16 13.27 20.38 13.27 19.36 14.34 19.14 14.34 20.16"/>
					<polygon points="11.85 23.02 10.78 23.24 10.78 22.22 11.85 22 11.85 23.02"/>
					<polygon points="17.52 22.41 11.85 23.54 11.85 22.52 17.52 21.39 17.52 22.41"/>
					<polygon points="22.15 24.52 7.61 27.4 7.61 26.38 22.15 23.5 22.15 24.52"/>
					<polygon points="22.15 8.61 7.61 11.49 7.61 10.47 22.15 7.59 22.15 8.61"/>
				</g>
				<polygon points="21.92 27.02 21.92 27.97 19.46 28.46 19.46 27.51 21.92 27.02"/>
				<polygon points="14.5 31.53 14.5 32.47 9.15 33.54 9.15 32.59 14.5 31.53"/>
			</g>
			<rect x="0" width="24.99" height="40.95" style="fill:none;"/>
		</g>
	</g>
</svg>