<?xml version="1.0" encoding="UTF-8"?>
<svg id="Calque_2"
	xmlns="http://www.w3.org/2000/svg" viewBox="0 0 33.27 29.95">
	<g id="Calque_1-2">
		<g id="be4980e9-38cb-4d7e-8419-fa20c43f2632">
			<g id="a6fd7a27-a539-4655-a909-bfdfc4c51046">
				<path d="M30.54,3.02c-3.64-3.63-9.53-3.63-13.17,0l-.6,.6-.6-.6C12.7-.77,6.81-1.03,3.02,2.45-.77,5.93-1.03,11.83,2.45,15.62c0,0,.01,.01,.02,.02,.17,.19,.36,.37,.55,.55l13.76,13.76,13.76-13.76c3.63-3.64,3.63-9.53,0-13.17Zm-1.17,12l-2.75,2.75c-.25-.96-1.23-1.54-2.19-1.3-.96,.25-1.54,1.23-1.3,2.19,.16,.64,.66,1.14,1.3,1.3l-7.65,7.66-7.63-7.65c.98-.19,1.61-1.14,1.42-2.12-.19-.98-1.14-1.61-2.12-1.42-.72,.14-1.28,.7-1.42,1.42l-1.66-1.66-1.19-1.19c-3.12-2.86-3.34-7.7-.48-10.82,2.86-3.12,7.7-3.34,10.82-.48,0,0,0,0,0,0,.17,.15,.33,.31,.48,.48l1.77,1.77,1.77-1.77c3.13-2.85,7.97-2.63,10.82,.5,2.67,2.92,2.67,7.4,0,10.32Z"/>
				<path d="M12.17,14.58c1.8-.31,3.11-1.88,3.11-3.71v-.15c0-1.83-1.31-3.39-3.11-3.7-.22-.04-.43-.06-.65-.06h-1.29c-2.08,0-3.77,1.68-3.77,3.76h0v.15c0,2.08,1.69,3.76,3.77,3.76h1.29c.22,0,.43-.02,.64-.06Zm-4.46-3.7v-.15c0-1.39,1.13-2.52,2.53-2.52h.93c-1.43,1.25-1.58,3.42-.33,4.85,.1,.12,.21,.23,.33,.33h-.93c-1.39,0-2.52-1.12-2.53-2.51Z"/>
				<path d="M24.08,7.06c-.24-.05-.49-.08-.74-.07h-1.3c-2.08,0-3.76,1.69-3.76,3.76v.14c0,2.08,1.68,3.76,3.76,3.76h1.29c2.08,0,3.76-1.69,3.76-3.76v-.14c0-1.79-1.26-3.33-3.02-3.69Zm-4.56,3.83v-.14c0-1.39,1.13-2.52,2.52-2.52h1.05c-1.42,1.26-1.56,3.43-.3,4.85,.1,.12,.21,.23,.33,.33h-1.08c-1.39,0-2.51-1.12-2.52-2.51h0Z"/>
				<path d="M16.84,20.19c-2.14,0-3.87-1.73-3.87-3.87h-1.66c-.06,3.05,2.37,5.57,5.42,5.63,3.05,.06,5.57-2.37,5.63-5.42,0-.07,0-.14,0-.21h-1.66c0,2.14-1.73,3.87-3.87,3.87Z"/>
			</g>
		</g>
	</g>
</svg>