<?xml version="1.0" encoding="UTF-8"?>
<svg id="Calque_2"
	xmlns="http://www.w3.org/2000/svg" viewBox="0 0 35.49 35.49">
	<g id="Calque_1-2">
		<path d="M15.11,22.66h-.39v.39h-.36v.73h-.4v.39h-.37v.37h-.39v.75h-.36v.4h-.4v.36h-.37v.4h-.36v.76h-.4v.36h-.37v.4h-.39v.37h-.37v.75h-.39v.36h-.37v.4h-.39v.76h-.37v.36h-.4v.4h-.36v.37h-.4v.39h-.36v-.74h.35v-.4h.39v-.76h.37v-.36h.4v-.76h.36v-.37h.4v-.75h.37v-.4h.39v-.75h.36v-.37h.4v-.75h.37v-.4h.39v-.76h.37v-.36h.37v-.76h.39v-.36h.36v-.76h.4v-.39h.36v-.36h-.74v.35h-.37v.39h-.76v.37h-.36v.4h-.4v.36h-.75v.36h-.37v.4h-.75v.37h-.4v.39h-.76v.37h-.36v.4h-.76v.36h-.39v.39h-.73v.37h-.39v.4h-.76v.36h-.37v.4h-.75v.36h-.39v-.74h.38v-.36h.76v-.4h.36v-.37h.4v-.39h.37v-.37h.75v-.4h.37v-.36h.4v-.4h.36v-.36h.75v-.4h.4v-.36h.37v-.37h.39v-.4h.76v-.36h.37v-.4h.39v-.36h.75v-.4h.37v-.36h.37c0-.15,0-.27,0-.4,.13,0,.26,0,.39,0v-.35h-.38v.36h-1.48v.39h-1.15v.37h-1.52v.39h-1.12v.37h-1.51v.39h-1.12v.37h-1.52v.39H1.87v.36H.76v-.35h.35v-.39h1.15v-.37h1.12v-.39h.75v-.37h1.15v-.39h1.12v-.37h.75v-.4h1.12v-.36h1.15v-.4h.75v-.36h1.12v-.4h1.12v-.36h-3.38v-.4H0v-.37H.74v-.36H9.8v-.4h2.63v-.37h-1.11v-.39h-1.12v-.37h-1.15v-.39h-.75v-.37h-1.12v-.39h-1.12v-.37h-.75v-.4h-1.15v-.36h-1.12v-.4H1.87v-.36h-.75v-.4h-.36v-.36h.75v.35h1.12v.4h1.52v.36h1.52v.4h1.12v.36h1.51v.4h1.15v.36h1.52v.4h1.12v.36h.76v-.35h-.38v-.4h-.36v-.37h-.76v-.39h-.36v-.36h-.4v-.4h-.36v-.37h-.76v-.39h-.4v-.37h-.36v-.37h-.4v-.39h-.76v-.37h-.36v-.39h-.39v-.37h-.73v-.39h-.4v-.37h-.36v-.4h-.4v-.36h-.76v-.4h-.36v-.37h-.4v-.39h-.36v-.36h.74v.35h.36v.4h.76v.36h.4v.4h.75v.37h.37v.39h.75v.36h.37v.4h.75v.37h.4v.39h.76v.37h.36v.4h.76v.36h.4v.37h.75v.39h.36v.37h.76v.39h.37v.36h.75v-.35h-.35v-.39h-.4v-.76h-.36v-.36h-.39v-.76h-.37v-.36h-.37v-.76h-.39v-.4h-.37v-.36h-.4v-.76h-.36v-.4h-.4v-.75h-.36v-.36h-.4v-.76h-.36v-.37h-.4v-.75h-.37v-.4h-.39v-.76h-.36v-.75h.35v.38h.39v.36h.36v.4h.4v.75h.37v.37h.39v.4h.37v.72h.4v.4h.36v.36h.39v.4h.37v.75h.4v.37h.36v.4h.37v.36h.4v.76h.36v.4h.4v.36h.36v.39h.4v.73h.36v.4c.15,0,.27,0,.4,0,0,.12,0,.24,0,.36h.35v-.35h-.36v-1.12h-.39v-1.51h-.37v-1.15h-.39v-1.52h-.37v-1.12h-.39v-1.51h-.37v-1.12h-.39v-1.52h-.36V.76h.35V1.86h.39v.76h.37v1.15h.39v1.12h.37v.76h.39v1.12h.37v1.15h.4v.76h.36v1.12h.4v1.15h.37v1.12h.39v.75h.36V5.3h.4V0h.37V4.53h.36V13.19h.4v-1.1h.37v-1.12h.39v-1.15h.37v-.75h.4v-1.12h.36v-1.15h.39v-.73h.37v-1.15h.4v-1.12h.36v-1.15h.4v-.75h.37V.75h.39v1.5h-.37v1.52h-.37v1.51h-.4v1.12h-.36v1.52h-.4v1.12h-.37v1.52h-.39v1.15h-.36v1.11h.35v-.38h.4v-.37h.36v-.76h.4v-.36h.37v-.4h.39v-.76h.37v-.36h.4v-.4h.36v-.36h.36v-.76h.4v-.39h.37v-.37h.39v-.4h.37v-.72h.4v-.4h.36v-.37h.4v-.75h.36v-.39h.4v-.37h.36v-.39h.39v.74h-.38v.76h-.36v.4h-.4v.75h-.37v.37h-.39v.75h-.36v.37h-.4v.75h-.37v.4h-.39v.76h-.37v.36h-.4v.76h-.36v.39h-.36v.76h-.4v.36h-.37v.76h-.39v.37h-.36v.75h.35v-.35h.39v-.4h.76v-.36h.36v-.39h.76v-.37h.36v-.37h.76v-.39h.4v-.37h.75v-.4h.37v-.36h.76v-.4h.39v-.36h.75v-.4h.37v-.36h.76v-.4h.36v-.37h.4v-.39h.76v-.36h.75v.35h-.37v.4h-.37v.36h-.4v.4h-.75v.37h-.37v.39h-.37v.37h-.39v.4h-.76v.36h-.37v.4h-.39v.36h-.75v.4h-.37v.36h-.4v.37h-.36v.4h-.76v.36h-.4v.4h-.36v.37h-.4v.39h-.72v.36h-.4v.4c-.12,0-.24,0-.36,0v.35h.35v-.36h1.51v-.39h1.12v-.37h1.52v-.39h1.15v-.36h1.52v-.4h1.12v-.37h1.52v-.39h1.52v-.36h.75v.35h-.38v.39h-1.12v.36h-.76v.4h-1.15v.37h-1.12v.39h-1.12v.37h-.75v.4h-1.15v.36h-1.12v.39h-.76v.37h-1.15v.4h-1.12v.36h3.78v.4h9.05v.37h-1.5v.36h-9.06v.4h-1.87v.36h.71v.4h1.15v.36h1.12v.4h1.15v.37h.76v.39h1.12v.36h1.12v.4h1.15v.37h.76v.39h1.12v.37h1.14v.75h-.38v-.35h-1.51v-.39h-1.52v-.37h-1.12v-.4h-1.52v-.36h-1.12v-.4h-1.51v-.37h-1.15v-.39h-1.48v-.36h-.75v.35h.35v.4h.76v.36h.37v.4h.39v.37h.37v.39h.75v.36h.4v.4h.36v.37h.76v.36h.4v.4h.36v.37h.4v.39h.76v.37h.36v.39h.39v.37h.37v.39h.76v.37h.36v.4h.4v.36h.75v.76h-.74v-.35h-.39v-.4h-.76v-.36h-.37v-.4h-.75v-.37h-.37v-.39h-.76v-.37h-.39v-.39h-.75v-.37h-.37v-.39h-.76v-.37h-.39v-.4h-.76v-.36h-.37v-.37h-.75v-.4h-.37v-.36h-.75v-.39h-.4v-.36h-.36v.75h.35v.36h.4v.76h.36v.37h.4v.75h.36v.39h.37v.76h.39v.37h.37v.75h.4v.4h.36v.76h.4v.36h.36v.39h.4v.73h.36v.4h.4v.75h.37v.37h.39v.76h.36v.39h-.75v-.38h-.36v-.75h-.39v-.37h-.37v-.39h-.4v-.37h-.36v-.76h-.4v-.36h-.37v-.4h-.39v-.36h-.36v-.76h-.4v-.39h-.37v-.37h-.36v-.4h-.4v-.75h-.37v-.37h-.39v-.4h-.37v-.75h-.39v-.36h-.37v-.37h-.39v-.39h-.36v.74h.35v1.52h.39v1.12h.37v1.51h.39v1.15h.37v1.49h.39v1.15h.37v1.51h.4v1.12h.36v.75h-.35v-.35h-.39v-.75h-.37v-1.15h-.39v-1.12h-.37v-.75h-.4v-1.15h-.36v-1.12h-.4v-.75h-.36v-1.12h-.4v-1.15h-.36v-1.12h-.4v-.75h-.37v-.76h-.39v10.2h-.37v2.63h-.36v-6.77h-.4v-6.06h-.36v1.11h-.4v.75h-.37v1.15h-.39v1.12h-.37v1.15h-.39v.75h-.37v1.12h-.39v1.12h-.37v1.15h-.4v.76h-.36v1.12h-.4v.75h-.36v-1.5h.35v-1.12h.39v-1.52h.37v-1.15h.4v-1.49h.36v-1.15h.4v-1.51h.36v-1.51h.4c0-.39,0-.76,0-1.13,.12,0,.24,0,.36,0v-.35h-.35v.36Zm4.9-.37v-.38h-.38v.38h.38Z"/>
	</g>
</svg>