<?xml version="1.0" encoding="UTF-8"?>
<svg id="Calque_2"
	xmlns="http://www.w3.org/2000/svg" viewBox="0 0 37.08 28.76">
	<g id="Calque_1-2">
		<path d="M18.93,3.39c0-.24-.02-.47-.03-.73-.11,0-.23-.01-.35-.02,0-.12-.01-.24-.02-.37-.12-.01-.23-.02-.35-.03,0-.12-.02-.23-.02-.35-.12,0-.23-.02-.35-.03,0-.11-.01-.22-.02-.35-.12-.01-.24-.02-.36-.03,0-.12-.02-.23-.02-.35-.12,0-.23-.02-.35-.03V.39c.12,0,.22-.02,.35-.03,0-.11,.01-.22,.02-.36,.36-.01,.72,0,1.1,0,0,.12,.01,.23,.02,.36,.12,.01,.23,.02,.36,.03,0,.12,.02,.23,.03,.35,.12,0,.23,.02,.35,.03,0,.11,.01,.22,.02,.35,.12,0,.23,.01,.37,.02,0,.11,.01,.22,.02,.36h.73c0,.14,.02,.25,.02,.37,.12,0,.22,.01,.35,.02,0,.11,.01,.22,.02,.35,.12,0,.23,.02,.36,.03,0,.12,.01,.24,.02,.37,.12,0,.23,.01,.36,.02,0,.12,.01,.23,.02,.36,.12,0,.23,.01,.36,.02,0,.12,.01,.23,.02,.36h.76c0,.13,.01,.24,.02,.37,.12,0,.22,.01,.36,.02,0,.12,.01,.23,.02,.36h.73c0,.13,.01,.25,.02,.37,.12,0,.23,.01,.36,.02,0,.12,.01,.23,.02,.36h.73c0,.13,.01,.25,.02,.38h.73v.76c-.11,0-.22,.02-.36,.03v.73h-4.91c0,.13-.01,.24-.02,.36-.21,.04-.42,.01-.62,.02-.2,0-.4,0-.61,0h-.65c0,.12-.02,.23-.03,.36-.49,.04-.98,0-1.48,.03,0,.12-.02,.23-.02,.35h-1.14v-.72c-.13-.01-.24-.02-.36-.03v-.73h.75c0-.13,.01-.24,.02-.37,.25,0,.5,0,.74,0,.24,0,.48,0,.74,0,0-.14,.01-.26,.02-.4h.73v-.76c-.44,0-.88,0-1.31,0-.44,0-.88,0-1.33,0,0-.13-.01-.23-.02-.34-.15-.04-3.11-.05-3.39-.01,0,.11-.01,.21-.02,.35-.74,.01-1.48,0-2.24,0,0,.12-.01,.23-.02,.37h-1.51c0,.13-.01,.24-.02,.38h-.73c0,.14-.01,.26-.02,.4h-1.11c0,.14-.02,.25-.03,.36-.12,0-.23,.02-.35,.03,0,.11-.01,.22-.02,.36h-.74c0,.13-.01,.24-.02,.37-.12,0-.23,.02-.35,.03,0,.12-.02,.23-.02,.36h-.73c0,.13-.01,.24-.02,.37-.12,0-.23,.02-.35,.03,0,.12-.02,.23-.02,.35-.12,0-.23,.02-.35,.02,0,.11-.01,.22-.02,.35-.12,.01-.23,.02-.37,.03v.75c-.13,0-.24,.01-.37,.02,0,.12-.01,.23-.02,.36-.12,0-.23,.01-.36,.02v.73c-.15,0-.27,.02-.41,.03v.73c-.13,0-.24,.01-.37,.02-.01,.21,0,.41,0,.62,0,.21,0,.42,0,.63v.63c-.13,.01-.24,.02-.36,.03v1.48c.11,0,.22,.02,.36,.03v1.5c.13,0,.24,.01,.37,.02v1.11c.15,0,.27,.02,.41,.03v.73c.13,0,.25,.02,.38,.03v.73c.13,0,.24,.01,.37,.02,0,.12,.01,.23,.02,.36,.12,0,.23,.01,.36,.02v.75c.13,.01,.24,.02,.37,.03,0,.11,.01,.22,.02,.34,.12,.01,.23,.02,.35,.03,0,.12,.02,.23,.03,.35,.12,0,.23,.02,.35,.03,0,.11,.01,.22,.02,.35,.12,.01,.23,.02,.35,.03,0,.12,.02,.23,.02,.35,.12,0,.23,.02,.35,.03,0,.12,.02,.22,.03,.35,.12,0,.23,.01,.37,.02,0,.11,.01,.22,.02,.35,.12,0,.23,.02,.36,.03,0,.13,.01,.24,.02,.37,.12,0,.23,.01,.35,.02,0,.11,.01,.22,.02,.36,.18,.02,.37,0,.55,.01,.18,0,.36,0,.57,0v-.75c.14-.01,.25-.02,.37-.03v-.74c-.24,0-.48-.01-.73-.02,0-.13-.02-.23-.02-.36h-.73c0-.13-.01-.24-.02-.36-.12-.01-.23-.02-.36-.03,0-.12-.01-.23-.02-.35-.12,0-.23-.02-.35-.03,0-.11-.01-.22-.02-.35-.12,0-.23-.01-.36-.02-.01-.12-.02-.23-.03-.35-.12,0-.23-.02-.35-.03,0-.12-.01-.24-.02-.37-.11,0-.22-.01-.36-.02v-.73c-.13,0-.24-.01-.38-.02v-.73c-.13,0-.24-.01-.38-.02v-1.11c-.13,0-.24-.01-.35-.02-.04-.15-.05-2.27-.02-2.62,.11-.01,.22-.02,.36-.03v-1.1c.13-.01,.24-.02,.37-.03v-.75c.14,0,.24-.01,.37-.02v-.73c.13,0,.25-.01,.38-.02,0-.12,.01-.23,.02-.36,.11,0,.23-.01,.36-.02,0-.12,.01-.23,.02-.35,.12,0,.24-.02,.37-.02,0-.12,.01-.23,.02-.35,.12,0,.22-.01,.36-.02,0-.11,.01-.23,.02-.36,.12,0,.23-.01,.36-.02,0-.11,.01-.23,.02-.36h.73c0-.13,.01-.25,.02-.38,.24-.04,.48,0,.73-.03,0-.12,.01-.23,.02-.36h.73c0-.13,.01-.23,.02-.34,.16-.05,4.16-.06,4.53-.02,0,.1,.01,.21,.02,.35h1.11c0,.14,.02,.25,.02,.38h.73c0,.14,.01,.25,.02,.39h.76c0,.14,.01,.25,.02,.38,.12,0,.23,.01,.36,.02,0,.11,.01,.22,.02,.36,.11,0,.23,.01,.36,.02,0,.12,.01,.23,.02,.36,.11,0,.23,.01,.36,.02,0,.12,.01,.23,.02,.36,.11,0,.23,.01,.36,.02,0,.12,.01,.23,.02,.36,.12,0,.23,.01,.36,.02v.73c.13,0,.25,.02,.38,.02v.75c.13,.01,.25,.02,.38,.04v1.1c.13,.01,.24,.02,.36,.03v2.62c-.12,0-.22,.01-.36,.02v1.11c-.13,0-.24,.01-.38,.02v.73c-.13,0-.24,.01-.37,.02v.73c-.13,0-.25,.01-.37,.02,0,.12-.01,.24-.02,.38-.12,0-.23,.02-.36,.03,0,.12-.01,.23-.02,.35-.12,0-.23,.02-.35,.02,0,.11-.01,.22-.02,.35-.12,0-.23,.02-.35,.03,0,.12-.02,.23-.02,.35-.12,0-.22,.02-.35,.02,0,.11-.01,.22-.02,.36h-.76c0,.14-.01,.25-.02,.38h-.73c0,.14-.02,.25-.02,.38h-1.48c0,.13-.02,.24-.03,.38h-4.16v.76c-.13,0-.25,.01-.38,.02,0,.12-.01,.23-.02,.36-.11,0-.23,.01-.36,.02v.36c.18,.02,.37,0,.55,0,.19,0,.38,0,.59,0,0-.12,.01-.24,.02-.37h1.11c0-.13,.01-.25,.02-.38h1.86c0-.13,.01-.25,.02-.37h4.91c0,.11,.01,.22,.02,.36h1.11c0,.13,.01,.24,.02,.37,.12,0,.23,.01,.36,.02v.73c-.11,0-.22,.01-.35,.02,0,.11-.01,.23-.02,.36-.12,0-.23,.01-.36,.02v.73c-.13,0-.24,.01-.37,.02v.75c-.26,.02-.5,.02-.75,0v-.75c-.13,0-.24-.01-.37-.02,0-.11-.01-.23-.02-.36-.12,0-.23-.01-.36-.02,0-.11-.01-.23-.02-.37h-.76c0-.13-.01-.24-.02-.36h-4.52c0,.12-.01,.23-.02,.35h-1.1v.39h.72c0,.13,.01,.24,.02,.38h.73c0,.12,.01,.24,.02,.37h1.11c0,.08,.01,.14,.01,.2,0,.06,0,.12,0,.21h1.13c0,.13,.02,.24,.03,.37h1.1c0,.13,.01,.24,.02,.37,.31,.02,.62,0,.93,.01,.31,0,.63,0,.96,0,0,.12,.01,.23,.02,.34,.16,.05,6.56,.06,6.8,0,0-.1,.01-.21,.02-.35h1.48c0-.13,.01-.24,.02-.36,.37-.03,.75,0,1.13-.02,0-.12,0-.22,.02-.35,.24-.05,.48,0,.74-.04v-.38h.75c0-.13,.01-.24,.02-.38h.73c0-.13,.01-.24,.02-.38h.73c0-.13,.01-.24,.02-.37,.13,0,.25-.01,.39-.02,0-.12,.01-.22,.02-.35,.11,0,.23-.01,.36-.02,0-.12,.01-.23,.02-.35,.12,0,.23-.01,.36-.02,0-.12,.01-.23,.02-.35,.12,0,.23-.01,.36-.02,0-.12,.01-.23,.02-.35,.12,0,.23-.02,.36-.02,0-.12,.01-.23,.02-.35,.12,0,.23-.02,.37-.03v-.74c.13-.01,.24-.02,.37-.03v-.72c.14-.01,.25-.02,.37-.04v-.36c-.12,0-.22-.01-.35-.02,0-.11-.01-.22-.02-.35-.12-.01-.23-.02-.36-.03,0-.12-.01-.22-.02-.35-.12,0-.22-.01-.35-.02,0-.11-.01-.22-.02-.35-.12-.01-.23-.02-.36-.03,0-.12-.01-.24-.02-.37-.12,0-.22-.01-.36-.02,0-.11-.01-.23-.02-.36-.12,0-.23-.01-.36-.02v-.73c-.13,0-.24-.01-.37-.02,0-.11-.01-.23-.02-.36-.13,0-.25-.02-.39-.02,0-.12-.01-.23-.02-.35-.12,0-.23-.02-.36-.02,0-.12-.01-.23-.02-.35-.12,0-.23-.02-.36-.02,0-.12-.01-.23-.02-.36-.11,0-.22-.01-.36-.02v-.75h-3.4v4.55h.72c0,.13,.02,.24,.03,.36,.11,0,.22,.02,.35,.03,0,.11,.01,.22,.02,.35h.75c0,.13,.01,.24,.02,.37,.12,0,.23,.02,.35,.03v.34h-6.78v-.34c.11,0,.22-.02,.35-.03,0-.12,.01-.22,.02-.36h.73c0-.13,.01-.24,.02-.36,.24-.06,.49,0,.73-.05,0-.11,.02-.22,.03-.36h.76V10.22c-.13,0-.25-.02-.38-.02,0-.12-.01-.23-.02-.36h-.73c0-.13-.01-.24-.02-.38h-.73c0-.14-.01-.26-.02-.39h-.73v-.73h8.28c0,.11,.02,.22,.03,.36h4.14c.01,.14,.02,.25,.03,.38h1.12c0,.14,.02,.25,.02,.39h.73c0,.13,.01,.25,.02,.37,.12,0,.23,.01,.36,.02,0,.12,.01,.23,.02,.36,.12,0,.23,.01,.35,.02,0,.12,.02,.23,.02,.36,.12,0,.23,.01,.35,.02v3c-.11,.01-.23,.02-.35,.03,0,.12-.02,.23-.02,.35-.12,0-.23,.02-.35,.03,0,.11-.01,.22-.02,.35-.12,.01-.23,.02-.35,.03,0,.12-.02,.23-.03,.36h-.73c0,.13-.02,.24-.02,.37h-1.12c0,.13-.01,.24-.02,.38-.74,0-1.47,0-2.24,0-.01,.25,0,.5,0,.76,.12,0,.23,.01,.36,.02,0,.11,.01,.23,.02,.36,.12,0,.22,.01,.36,.02,0,.12,.01,.23,.02,.36,.12,0,.23,.01,.36,.02,0,.12,.01,.23,.02,.36,.12,0,.23,.01,.36,.02,0,.12,.01,.23,.02,.36,.12,0,.23,.01,.36,.02v.73c.13,0,.24,.01,.37,.02,0,.12,.01,.23,.02,.36,.13,0,.24,.01,.37,.02,0,.12,.01,.22,.02,.36,.12,0,.23,.01,.36,.02,0,.13,.01,.24,.02,.38,.12,0,.23,.02,.35,.03,0,.12,.02,.23,.02,.35,.12,0,.23,.01,.35,.02,0,.11,.01,.22,.02,.36h.73c0,.14,.02,.25,.02,.38h.73c0,.13,.01,.24,.02,.38h1.13c.01,.14,.02,.25,.03,.37,.12,.01,.23,.02,.35,.03v.35h-3.78v.76c-.13,0-.24,.01-.37,.02v.73c-.14,0-.26,.01-.39,.02,0,.12-.01,.22-.02,.36-.11,0-.23,.01-.36,.02,0,.12-.01,.23-.02,.36-.12,0-.23,.01-.36,.02,0,.12-.01,.23-.02,.36-.12,0-.23,.01-.36,.02,0,.12-.01,.23-.02,.36-.12,0-.23,.01-.36,.02,0,.12-.01,.23-.02,.36-.12,0-.23,.01-.36,.02,0,.12-.01,.23-.02,.36-.12,0-.23,.01-.36,.02,0,.13-.01,.24-.02,.37-.12,0-.23,.01-.36,.02,0,.11-.01,.22-.02,.34-.25,.06-.5,0-.76,.05,0,.11-.01,.22-.02,.35-.13,0-.25,0-.37,0-.12,0-.23,0-.36,0,0,.14-.02,.25-.03,.38h-.73c0,.13-.01,.24-.02,.38h-1.11c0,.13-.01,.23-.02,.36-.37,.04-.73,0-1.12,.03,0,.11-.02,.23-.03,.36h-1.47c0,.08-.01,.13-.02,.18,0,.05,0,.11,0,.16-.16,.04-7.22,.06-7.54,.01,0-.1-.01-.21-.02-.33-.21-.05-.42-.02-.62-.02-.21,0-.42,0-.63,0h-.64c0-.13-.02-.24-.02-.38h-1.48c0-.13-.01-.24-.02-.37-.37-.03-.75,0-1.12-.02,0-.12-.02-.23-.03-.36h-.73c0-.13-.01-.24-.02-.38h-.73c0-.13-.01-.24-.02-.36-.24-.06-.48,0-.73-.04,0-.11-.01-.22-.02-.36h-.76c0-.14-.01-.26-.02-.39h-.73c0-.13-.01-.25-.02-.37h-.74c0,.11-.01,.22-.02,.36h-.73c0,.14-.02,.26-.03,.39h-.74v-.75c.12,0,.24-.01,.37-.02,0-.12,.01-.23,.02-.36,.12,0,.23-.01,.35-.02v-.36c-.12,0-.23-.01-.35-.02,0-.11-.01-.22-.02-.36h-.37c0-.14-.01-.24-.02-.37-.12,0-.23-.01-.36-.02,0-.12-.01-.23-.02-.36-.12,0-.22-.01-.36-.02,0-.11-.01-.23-.02-.36-.12,0-.23-.01-.36-.02,0-.11-.01-.23-.02-.36-.12,0-.23-.01-.35-.02,0-.12-.02-.24-.03-.38-.12,0-.23-.02-.35-.03,0-.11-.01-.22-.02-.35-.12-.01-.24-.02-.36-.03,0-.12-.02-.23-.02-.35-.12,0-.23-.02-.35-.03,0-.11-.01-.22-.02-.35-.12-.01-.24-.02-.36-.03,0-.12-.02-.23-.02-.35-.13,0-.24-.02-.38-.03v-.72c-.13-.01-.25-.02-.38-.04v-.75c-.13,0-.24-.01-.37-.02,0-.12-.01-.23-.02-.36-.12,0-.23-.01-.36-.02v-1.11c-.13,0-.24-.01-.38-.02v-.73c-.13,0-.24-.01-.38-.02v-1.88c-.14-.01-.24-.02-.37-.03v-2.63c.11,0,.22-.01,.36-.02v-1.49c.13,0,.24-.01,.38-.02v-1.11c.13,0,.24-.01,.37-.02v-.74c.13-.01,.25-.02,.37-.04,0-.12,.02-.23,.03-.35,.12,0,.23-.02,.36-.03v-.73c.13,0,.24-.02,.36-.02,.01-.12,.02-.23,.03-.35,.13,0,.24-.02,.38-.03,0-.11,.01-.22,.02-.35,.12-.01,.23-.02,.36-.03,0-.12,.01-.23,.02-.35,.12,0,.23-.02,.36-.03,0-.11,.01-.22,.02-.34,.12-.01,.23-.02,.36-.03,0-.12,.01-.23,.02-.36h.73c0-.14,.02-.26,.02-.4,.12,0,.23-.01,.35-.02,0-.12,.01-.23,.02-.37h.73c0-.13,.01-.24,.02-.37h.75c0-.14,.01-.24,.02-.38h.73c0-.13,.01-.24,.02-.38h1.11c0-.13,.01-.24,.02-.38h1.51c0-.13,.01-.24,.02-.38h2.24c0-.13,.01-.24,.02-.36h4.16c0,.11,.01,.23,.02,.35,.06,0,.12,.01,.17,.01,.77,0,1.53,0,2.3,0,.06,0,.12-.01,.18-.02-.05,.13-.03,.25-.02,.38h.36v-.36c-.12,0-.23-.01-.34-.02Zm-2.65,10.22c0-.26,0-.51,0-.76,0-.25,0-.5,0-.75-.14,0-.26-.01-.4-.02v-.73c-.13,0-.24-.01-.38-.02v-.73c-.13,0-.24-.01-.36-.02,0-.13-.01-.24-.02-.36-.13,0-.24-.01-.36-.02,0-.13-.01-.24-.02-.37h-.73c0-.13-.01-.24-.02-.37h-1.11c0-.14-.01-.26-.02-.37-.26-.05-2.48-.04-2.65,.02v.34c-.39,.03-.77-.01-1.14,.02,0,.13-.01,.24-.02,.37h-.73c0,.14-.01,.24-.02,.36-.13,0-.24,.01-.36,.02,0,.14-.01,.24-.02,.36-.13,0-.23,.01-.35,.02,0,.13-.02,.24-.02,.36-.12,0-.23,.01-.37,.02v.73c-.13,0-.24,.01-.37,.02v1.5c-.13,.01-.25,.02-.37,.03v4.13c.12,0,.24,.02,.36,.03v1.48c.14,0,.25,.02,.38,.03v.75c.13,.01,.25,.02,.36,.03,0,.12,.01,.23,.02,.35,.12,.01,.24,.02,.36,.03,0,.12,.01,.23,.02,.35,.13,.01,.24,.02,.36,.03,0,.12,.01,.23,.02,.36h.73c0,.14,.02,.25,.02,.36h.4v-.72c.14-.01,.25-.02,.37-.03,0-.13,.01-.24,.02-.34,.3-.04,.94-.03,1.1,.02v.31c-.12,.01-.24,.02-.36,.03v1.1h1.86c0-.12,.02-.23,.03-.36h1.49c0-.13,.02-.24,.03-.37,.25,0,.49-.01,.73-.02,0-.14,.01-.24,.02-.35,.13-.01,.24-.02,.35-.03,0-.12,.02-.23,.03-.35,.12,0,.23-.02,.36-.03v-.75c.14,0,.24-.01,.38-.02v-.73c.15,0,.27-.01,.41-.02v-1.48c.13,0,.25-.01,.35-.02v-3.39c-.12,0-.23-.02-.36-.03Zm8.32,1.51h2.25v-.36c-.13,0-.23-.02-.35-.02,0-.13-.02-.24-.02-.35-.13,0-.24-.02-.37-.03v-.72c-.14,0-.25-.02-.38-.02,0-.25-.01-.49,0-.72h2.25v.72c.14,.01,.25,.02,.37,.03,0,.12,.01,.23,.02,.35,.13,0,.24,.02,.35,.03,0,.12,.01,.23,.02,.35,.12,.01,.24,.02,.36,.03,0,.12,.01,.23,.02,.33,.24,.04,1.73,.04,1.89,0,0-.11,.02-.21,.02-.33,.25-.04,.49,.01,.73-.03,0-.13,.01-.24,.02-.37h.73c0-.13,.02-.24,.03-.36,.13,0,.24-.02,.38-.02v-.72c.14-.01,.25-.02,.36-.04v-1.51c-.12,0-.24-.01-.37-.02v-.74h-.38c0-.13-.01-.25-.02-.38h-.73c0-.13-.01-.25-.02-.38h-.73c0-.13-.01-.25-.02-.37-.22,0-.43,0-.63,0h-1.19c-.2,0-.4,0-.61,0-.2,0-.4,.01-.62-.01v-.37h-3.38v6.04Z"/>
	</g>
</svg>