<?xml version="1.0" encoding="UTF-8"?>
<svg id="Calque_2"
	xmlns="http://www.w3.org/2000/svg" viewBox="0 0 24.99 35.49">
	<g id="Calque_1-2">
		<g>
			<g>
				<g>
					<path d="M5.5,35.19c.11,.08,.24,.14,.37,.19l-.37-.19Z"/>
					<path d="M24.38,2.89c-.16-.13-.33-.23-.52-.29L19.64,.42s-.03-.02-.04-.03c-.39-.32-.9-.45-1.39-.35L2.57,3.11C1.08,3.41,0,4.71,0,6.23V31.29c0,.51,.23,.99,.62,1.31,.17,.14,.37,.25,.58,.31l4.3,2.27,.37,.19s.04,.01,.06,.02c.28,.1,.59,.12,.88,.06l16.53-3.28c.96-.19,1.66-1.04,1.66-2.02V4.18c0-.5-.22-.98-.61-1.3Zm-.12,27.27c0,.64-.45,1.18-1.07,1.31l-16.53,3.28c-.29,.06-.58-.02-.81-.2-.22-.18-.35-.46-.35-.75V8.74c0-1.17,.83-2.18,1.98-2.41l12.01-2.36,.73-.14,2.91-.57c.06-.01,.12-.02,.19-.02,.22,0,.43,.08,.6,.22,.22,.18,.35,.45,.35,.73V30.15Z"/>
				</g>
				<path d="M5.93,35.41l-.06-.03s.04,.01,.06,.02h0Z"/>
			</g>
			<g>
				<polygon points="11.47 13.63 10.4 13.84 10.4 12 11.47 11.78 11.47 13.63"/>
				<polygon points="18.55 12.14 17.48 12.36 17.48 10.51 18.55 10.29 18.55 12.14"/>
				<polygon points="15.42 17.22 14.34 17.44 14.34 12.54 15.42 12.33 15.42 17.22"/>
				<polygon points="7.61 23.65 6.54 23.87 6.54 8.98 7.61 8.76 7.61 23.65"/>
				<polygon points="23.22 20.56 22.15 20.77 22.15 5.88 23.22 5.67 23.22 20.56"/>
				<polygon points="14.34 17.44 13.27 17.65 13.27 16.63 14.34 16.41 14.34 17.44"/>
				<polygon points="11.85 20.3 10.78 20.51 10.78 19.49 11.85 19.27 11.85 20.3"/>
				<polygon points="17.52 19.69 11.85 20.81 11.85 19.79 17.52 18.67 17.52 19.69"/>
				<polygon points="22.15 21.79 7.61 24.67 7.61 23.65 22.15 20.77 22.15 21.79"/>
				<polygon points="22.15 5.88 7.61 8.76 7.61 7.74 22.15 4.86 22.15 5.88"/>
			</g>
			<polygon points="21.92 24.29 21.92 25.24 19.46 25.73 19.46 24.78 21.92 24.29"/>
			<polygon points="14.5 28.8 14.5 29.75 9.15 30.81 9.15 29.86 14.5 28.8"/>
		</g>
	</g>
</svg>