<svg xmlns="http://www.w3.org/2000/svg" viewBox="0 0 159.24 143.23"><g id="Calque_2" data-name="Calque 2"><g id="Calque_2-2" data-name="Calque 2"><path d="M146.09,13.17a45,45,0,0,0-63.59,0l-2.88,2.89-2.89-2.89A45,45,0,1,0,13.15,76.76l66.47,66.47,66.47-66.47A45,45,0,0,0,146.09,13.17ZM140.43,71.1l-13.3,13.3A8.7,8.7,0,1,0,116.57,95l-36.95,37L42.78,95.07A8.71,8.71,0,1,0,32.54,84.83l-8-8L18.8,71.1A37,37,0,1,1,71.08,18.83l8.54,8.53,8.54-8.53A37,37,0,0,1,140.43,71.1Z"/><path d="M57.36,69a18.12,18.12,0,0,0,15-17.9v-.71a18.1,18.1,0,0,0-15-17.88,17.57,17.57,0,0,0-3.15-.28H48A18.19,18.19,0,0,0,29.8,50.41v.71A18.19,18.19,0,0,0,48,69.29h6.25A18.32,18.32,0,0,0,57.36,69ZM35.8,51.12v-.71A12.18,12.18,0,0,1,48,38.25h4.48a16.6,16.6,0,0,0,0,25H48A12.18,12.18,0,0,1,35.8,51.12Z"/><path d="M114.85,32.68a17.63,17.63,0,0,0-3.59-.36H105A18.19,18.19,0,0,0,86.84,50.49v.7A18.19,18.19,0,0,0,105,69.36h6.25a18.19,18.19,0,0,0,18.17-18.17v-.7A18.19,18.19,0,0,0,114.85,32.68Zm-22,18.51v-.7A12.18,12.18,0,0,1,105,38.32h5.06a16.59,16.59,0,0,0,.15,25H105A12.18,12.18,0,0,1,92.84,51.19Z"/><path d="M79.89,96.12A18.71,18.71,0,0,1,61.2,77.43h-8a26.69,26.69,0,1,0,53.37,0h-8A18.7,18.7,0,0,1,79.89,96.12Z"/></g></g></svg>