<?xml version="1.0" encoding="UTF-8"?>
<svg id="Calque_2"
	xmlns="http://www.w3.org/2000/svg" viewBox="0 0 81.4 40.95">
	<g id="Calque_1-2">
		<g>
			<g>
				<path d="M80.1,18.86h-.32v.63c-.11,0-.2,0-.32,.02-.01,.32,0,.63,0,.96-.11,0-.21,.01-.32,.02v.96c-.11,0-.2,0-.31,.01v.63h-.34c-.01,.33,0,.65,0,.98-.11,0-.21,.01-.32,.02v.94c-.06,0-.11,.01-.16,.01-.04,0-.09,0-.15,0v.32h.63v.34h.65c0,.11,.01,.2,.02,.31,.1,0,.2,.02,.31,.02v.3h.31c0,.11,.01,.21,.02,.32,.1,0,.2,.01,.31,.02,0,.1,0,.2,.01,.3h.33v.65c.11,0,.21,.01,.31,.02v2.9h-.3v.64h-.33c0,.11-.01,.21-.02,.32-.1,0-.2,.01-.31,.02,0,.1-.01,.2-.02,.3-.1,0-.19,0-.3,.01v.32h-.64c0,.11-.01,.21-.02,.32-.21,.04-.43,0-.65,.03,0,.09,0,.19-.01,.29h-1.92c0-.1,0-.19-.02-.3H.64c0-.11-.01-.21-.02-.32-.11,0-.2-.01-.31-.02,0-.11,0-.21-.01-.32h-.3v-2.26c.09,0,.19,0,.3-.01v-.63c.11,0,.21,0,.32-.01v-.97h.34v-.98c.11,0,.21-.01,.32-.02v-.63h.32v-.97c.11,0,.21-.01,.32-.02v-.94c.11,0,.21-.02,.32-.03v-.64c.12,0,.22-.01,.34-.02v-.94c.11,0,.2-.01,.31-.02v-.96c.11,0,.21-.02,.33-.02v-.62c.11,0,.2-.01,.31-.02v-.95c.07,0,.11-.01,.16-.02,.05,0,.1,0,.16,0v-.95c.12,0,.22-.01,.34-.02v-.64c.11,0,.2-.01,.32-.02,0-.32,0-.63,0-.95,.11,0,.21-.01,.32-.02v-.96h.31v-.64c.12,0,.22-.01,.33-.02v-.96c.12,0,.22-.01,.34-.02v-.96h.31v-.64h.32v-.98h.32v-.95c.11,0,.21-.02,.32-.02v-.64c.12,0,.22-.01,.34-.02v-.31h.64c0-.12,.01-.21,.02-.32h9.39c0,.1,.01,.19,.02,.31h.62v.65c.11,0,.21,0,.32,.01v1.61h-.31v.64h-.32v.64c-.11,0-.21,0-.32,.01v.97c-.11,0-.21,0-.31,.01v.32H81.4c0,.17,0,.33,0,.48s0,.31,0,.49c-.1,0-.2,.01-.31,.02v.95h-.32v.65c-.11,0-.21,.01-.32,.02v.94h-.34c-.01,.33,0,.65-.01,.99Zm-3.86,6.83h0s-.02-.06-.02-.1c0-.28,0-.55,0-.83,0-.02,.01-.04,.02-.08h.3v-.96c.11,0,.21-.01,.33-.02v-.64h.34v-.98h.31v-.96c.11,0,.21-.01,.33-.02v-.64h.31v-.96c.11,0,.21-.01,.32-.02v-.94c.12,0,.22-.01,.34-.02v-.65h.31v-.95c.11,0,.21-.02,.33-.02,0-.43,0-.86,0-1.3H15.58c-.03-.23-.02-.85,.01-.98h.29v-.63c.11,0,.21-.01,.32-.02,0-.17,0-.32,0-.48,0-.16,0-.32,0-.5h.31v-.63c.11,0,.21-.01,.33-.02v-.64h.32v-1.27c-.2-.04-8.63-.03-8.76,.01,0,.1,0,.2,0,.3s0,.2,0,.3c-.12,0-.21,.01-.32,.02v.64c-.11,0-.21,.01-.33,.02v.94c-.11,0-.2,.01-.32,.02v.96c-.12,0-.22,.01-.34,.02v.62c-.11,0-.21,.02-.33,.02v.96c-.11,0-.2,.01-.32,.02v.95h-.33v.65c-.11,0-.21,.01-.31,.02v.94c-.12,0-.22,.01-.34,.02v.96c-.11,0-.21,.01-.33,.02v.62c-.11,0-.21,.01-.31,.02v.96c-.11,0-.21,.01-.32,.02v.64h-.32v.97c-.12,0-.22,.01-.34,.02v.96c-.11,0-.21,.01-.32,.02v.63h-.31v.97c-.12,0-.22,.01-.33,.02v.94c-.11,0-.2,.01-.32,.02v.65h-.33v.95c-.11,0-.21,.02-.33,.02v.96c-.11,0-.2,.01-.31,.02v.62c-.11,0-.21,.01-.32,.02v1.28H74.26c0-.1,0-.2,.01-.3,.06,0,.11,0,.16,0,.05,0,.1,0,.16-.01v-.95h.31v.64c.11,0,.21,.01,.32,.02,0,.11,0,.2,.01,.3,.11,0,.21,.01,.32,.02,0,.11,.01,.2,.02,.31h.64v.31h1.92c0-.11,.01-.21,.02-.32h.66v-.31c.12,0,.21-.01,.3-.02,0-.11,.01-.21,.01-.31,.11,0,.21-.01,.31-.02v-2.9c-.11,0-.21-.02-.31-.02,0-.11-.01-.2-.02-.32h-.31v-.34h-.66v-.3s-.07,0-.1,0c-.57,0-1.14,0-1.71,0-.04,0-.07,.02-.11,.03Z"/>
				<path d="M8.41,13.01v-.95c.11,0,.21-.02,.33-.02v-.64h.33v-.31h7.12v.96c-.1,0-.2,.01-.31,.02v.62c-.11,0-.2,.01-.31,.02v.96c-.12,0-.22,.01-.34,.02v.62c-.11,0-.21,.01-.33,.02v.96c-.11,0-.2,.01-.31,.02v.62c-.11,0-.21,.01-.33,.02v.96c-.11,0-.2,.01-.31,.02v.62c-.11,0-.21,.01-.34,.02v.96c-.12,0-.21,.01-.32,.02-.04,.21,0,.41-.03,.62-.1,0-.19,.01-.3,.02v.64c-.11,0-.21,.01-.32,.02v.62c.1,0,.2,.01,.31,.02v.31c.44,0,.87,0,1.29,0,.43,0,.87,0,1.3,0s.85,0,1.3,0v1.29h.34c0,.22,0,.44,0,.65,0,.21,0,.43,0,.65,.11,0,.2,.01,.3,.02v1.6c-.09,0-.19,.01-.3,.02v.62c-.12,0-.22,.01-.34,.02v.3c-.11,0-.21,.01-.33,.02v.64c-.11,0-.2,.01-.32,.02v.3c-.12,0-.22,.01-.33,.02v.63h-.31v.34h-.34v.64h-.32c0,.11-.01,.21-.02,.32-.1,0-.19,.01-.3,.02v.62c-.14,.04-12.08,.05-12.33,.01v-.95c.1,0,.21-.01,.32-.02v-.96c.11,0,.2,0,.31-.02v-.62c.12,0,.22-.01,.33-.02v-.96h5.18c.02-.22,0-.42,0-.64H3.56v-.31c.1,0,.2-.01,.31-.02v-.64h.33v-.95c.11,0,.21-.01,.32-.02v-.96c.12,0,.21-.02,.33-.02v-.62c.11,0,.2-.01,.31-.02v-.96c.12,0,.21-.02,.33-.02v-.95h.33v-.65c.11,0,.21-.01,.32-.02v-.94c.11,0,.21-.01,.33-.02v-.97h.31v-.63c.11,0,.21-.01,.32-.02v-.96c.12,0,.22-.01,.34-.02v-.97h.32v-.64c.11,0,.21-.01,.32-.02v-.97h.32Z"/>
				<path d="M40.21,22.41c-.12,0-.21,.01-.31,.02v.64h-.34v.96c-.11,0-.21,.02-.33,.03v.64h-.32v.96c-.12,0-.22,.02-.33,.02v.64h-.31v.95c-.12,0-.22,.01-.34,.02v.64c-.11,0-.21,.01-.32,.02v.62h-.31v.98h-11.04v-.63c.11,0,.21-.02,.33-.02v-.62c.12,0,.21-.01,.34-.02v-.96c.12,0,.21-.01,.32-.02v-.62c.11,0,.21-.02,.33-.02v-.64c.11,0,.2-.01,.31-.02v-.63c.11,0,.21,0,.33-.02v-.97h.34v-.64c.11,0,.21,0,.31-.02v-.63c.11,0,.21-.01,.33-.02v-.97c.11,0,.21,0,.31-.01v-.63c.11,0,.21-.01,.33-.02v-.97h.34v-.64h.32v-.64c.11,0,.21-.02,.32-.03v-.94h.32v-.65c.12,0,.21-.01,.33-.02v-.62c.12,0,.22-.01,.34-.02v-.64h4.86v.64c-.1,0-.2,.01-.32,.02v.62c-.12,0-.22,.02-.33,.02v.96c-.11,0-.2,.01-.31,.02v.62c-.11,0-.21,.01-.33,.02v.64c-.11,0-.2,.01-.31,.02v.95c-.12,0-.22,.01-.34,.02v.64c-.11,0-.21,.01-.33,.02v.95c-.11,0-.2,.01-.32,.02,0,.43,0,.85,0,1.28h.64v-.97h.34v-.64c.11,0,.21,0,.31-.01v-.96c.11,0,.21-.01,.33-.02v-.63h.31v-.97c.11,0,.21-.01,.33-.02v-.63h.34v-.98h.31v-.63c.11,0,.21-.01,.33-.02v-.96h5.17v.32h-.3c-.02,.33,0,.64-.01,.96-.11,0-.2,.01-.32,.02v.64c-.11,0-.2,0-.31,.01v.95c-.12,0-.22,.01-.34,.02v.64c-.11,0-.21,.01-.33,.02v.94c-.11,0-.2,.01-.32,.02v.64c-.12,0-.22,.01-.33,.02v.95Z"/>
				<path d="M75.24,25.97c-.12,0-.22,.01-.33,.02v.96h-.31v.64c-.12,0-.22,.01-.33,.02v.96h-.31v.98h-11.03v-.96c.1,0,.2-.01,.31-.02v-.62c.11,0,.2-.01,.32-.02v-.64c.12,0,.22-.02,.33-.02v-.95h.33v-.65c.11,0,.21-.01,.32-.02v-.94c.11,0,.21-.01,.33-.02v-.64c.11,0,.2-.01,.32-.02v-.62c.12,0,.21-.01,.32-.02v-.96c.12,0,.22-.02,.34-.03v-.62c.11,0,.2-.01,.31-.02v-.96c.11,0,.21-.02,.33-.02v-.62c.11,0,.2-.01,.32-.02v-.65h.33v-.95c.12,0,.22-.01,.34-.02v-.65h.31v-.63c.11,0,.21-.01,.33-.02v-.96h4.86v.96c-.09,0-.19,0-.31,.01v.63c-.11,0-.21,.01-.31,.02v.97h-.34v.64c-.11,0-.21,0-.33,.02v.97c-.11,0-.21,0-.31,.01v.63c-.11,0-.21,0-.33,.02v.64c-.11,0-.21,.01-.32,.02v.94h-.31c-.04,.13-.05,.71-.02,.98h.64v-.62c.12,0,.22-.01,.33-.02v-.64c.11,0,.2-.01,.31-.02v-.95c.11,0,.21-.01,.33-.02v-.64c.12,0,.22-.01,.33-.02v-.95h.32v-.65c.12,0,.22-.02,.33-.02v-.95c.11,0,.2,0,.31-.02v-.64c.11,0,.21-.02,.32-.02v-.94c.12,0,.22-.01,.34-.02v-.32h4.86v.32h-.32v.64c-.11,0-.21,.01-.33,.02v.97h-.31v.95c-.11,0-.21,.02-.33,.03v.64h-.32v.96c-.12,0-.22,.01-.34,.02v.96c-.11,0-.21,.02-.33,.02v.62c-.11,0-.2,.01-.31,.02v.96c-.11,0-.21,.01-.33,.02-.02,.31,0,.62-.01,.94-.09,0-.19,.01-.3,.02-.02,.21,0,.42-.01,.64-.11,0-.21,.01-.33,.02v.94Z"/>
				<path d="M39.57,25.34v-.31c.11,0,.21-.01,.32-.02v-.64c.11,0,.2-.01,.32-.02,.02-.15,0-.31,0-.46,0-.16,0-.31,0-.48,.11,0,.21-.02,.33-.02v-.64h.31v-.95c.11,0,.21-.02,.32-.02v-.64c.12,0,.22-.01,.34-.02v-.94c.11,0,.2-.01,.31-.02v-.65h.33v-.95c.11,0,.21-.01,.32-.02v-.64c.11,0,.21-.01,.33-.02v-.94c.12,0,.22-.02,.34-.02v-.64h6.14v.64c-.1,0-.2,.01-.32,.02v.62c-.11,0-.2,.01-.31,.02v.64c-.11,0-.21,.01-.33,.02v.95c-.11,0-.2,.01-.32,.02v.64h-.34v.96c-.11,0-.21,.01-.33,.02-.01,.16,0,.31,0,.47,0,.16,0,.31,0,.5,.36,.01,.7,0,1.05,0,.35,0,.71,0,1.06,0h1.05c.35,0,.7,0,1.05,0v.63c-.1,0-.19,.01-.3,.02v.64h-.34v.96c-.11,0-.21,.02-.33,.03v.64h-.32v.64c-.12,0-.22,.01-.33,.02v.96h-.31v.64h-.34v.97c-.12,0-.22,.01-.33,.02v.63h-.31v.98h-10.7v-.32h.32v-.95c.11,0,.21-.01,.32-.02v-.64c.11,0,.21-.01,.33-.02v-.94c.11,0,.2-.01,.32-.02v-.65h5.52v-.64h-5.18Z"/>
				<path d="M61.94,29.55h-12.65v-.64c.11,0,.21-.02,.33-.02v-.62c.11,0,.2-.01,.31-.02v-.96c.11,0,.21-.02,.33-.02v-.62c.11,0,.2-.01,.31-.02v-.64c.11,0,.21-.01,.33-.02v-.94c.12,0,.22-.02,.34-.02v-.64h.32v-.96c.12,0,.21-.01,.33-.02v-.65h.32v-.95c.11,0,.21-.02,.32-.03v-.64c.12,0,.22-.01,.34-.02v-.62h.31v-.98c.12,0,.22-.01,.33-.02v-.62h.31v-.98c.12,0,.22-.01,.33-.02v-.62c.12,0,.22-.01,.34-.02v-.96h5.17v.32h-.3v.64h-.34v.98h-.32v.64h-.32v.64h-.32v.98h-.32v.64h-.34v.97c-.11,0-.21,0-.32,.01v.63h-.32v.98c-.11,0-.21,0-.32,.01v.63c-.11,0-.21,0-.31,.01v1.3h7.42v.31h-.3v.66c-.11,0-.21,.01-.32,.02v.95h-.32v.65c-.12,0-.22,.01-.34,.02v.94c-.11,0-.21,.01-.32,.02v.32Z"/>
				<path d="M28.2,22.43v.96c-.11,0-.21,.02-.32,.03v.62c-.11,0-.2,.01-.31,.02v.64c-.11,0-.21,0-.32,.01,0,.1-.01,.2-.02,.31h-8.75v-.96c-.11,0-.21-.02-.33-.02v-.95h-.32v-1.29c-.12,0-.21-.01-.32-.02v-1.6s.1,0,.14-.01c.05,0,.1,0,.16-.01v-.64c.11,0,.2-.01,.31-.02v-.62c.12,0,.22-.01,.33-.02v-.96c.12,0,.22-.01,.34-.02v-.62c.11,0,.2-.01,.31-.02v-.62c.12,0,.22-.01,.33-.02v-.32h11.36v.96c-.11,0-.21,.01-.32,.02v.63h-.31v.65c-.12,0-.22,.01-.34,.02v.94c-.11,0-.21,.01-.32,.02v.64c-.11,0-.2,.01-.31,.02v.62c-.23,.02-.44,0-.65,0-.22,0-.44,0-.66,0h-3.23c-.21,0-.43,0-.65,0v.65c.32,0,.63,0,.95,0,.33,0,.65,0,.98,0h2.91v.31c-.09,0-.19,.01-.3,.02v.62c-.12,0-.22,.01-.35,.02Z"/>
				<path d="M67.46,16.26v.32h-.32c-.02,.32,0,.64-.01,.96-.11,0-.2,.01-.32,.02v.64c-.11,0-.2,0-.32,.02v.63c-.11,0-.21,0-.32,.01v.96c-.11,0-.21,0-.32,.02v.63h-.33c0,.11,0,.2-.01,.32-.28,.02-.56,0-.84,0-.28,0-.55,0-.83,0h-1.67c-.28,0-.56,0-.86,0-.01,.22,0,.42,0,.65,.26,0,.52,0,.78,0,.26,0,.52,0,.78,0h2.32v.64h-.3v.64c-.11,0-.21,.01-.32,.02v.96c-.06,0-.11,0-.16,.01-.05,0-.1,0-.16,0v.64h-.34v.63c-.14,.04-6.94,.04-7.12,0v-.3h.3v-.65c.12,0,.22-.02,.33-.02v-.62c.12,0,.21-.01,.33-.02v-.96c.11,0,.2-.01,.31-.02v-.62c.11,0,.21-.02,.33-.02v-.96c.11,0,.21-.02,.32-.03v-.62c.11,0,.2-.01,.32-.02v-.96c.12,0,.22-.01,.34-.02v-.62c.11,0,.2-.01,.31-.02v-.95c.07,0,.11-.01,.16-.02,.05,0,.1,0,.17-.01v-.62c.11,0,.2-.01,.32-.02v-.64h7.15Z"/>
				<path d="M17.19,26.97v-.64h.31c0-.12,.01-.22,.02-.34h.31v-.31h9.08v.64c-.1,0-.2,0-.32,.01v.63c-.12,0-.22,.01-.34,.02v.62c-.1,0-.19,.01-.31,.02-.01,.16,0,.32,0,.48,0,.16,0,.31,0,.48-.11,0-.21,.01-.32,.02v.63h-.32v.33H15.24s0-.06,0-.08c0-.07,0-.15,0-.23,.11,0,.22-.01,.33-.02,0-.1,.01-.19,.02-.3,.1,0,.19-.01,.3-.02v-.62c.11,0,.21-.02,.32-.02,0-.1,0-.19,.01-.3,.09,0,.19,0,.3-.02v-.64c.12,0,.22-.02,.32-.02,0-.11,.01-.2,.02-.31h.33Z"/>
				<path d="M48.33,21.11v-.94c.11,0,.21-.01,.32-.02v-.64c.11,0,.2,0,.31-.01v-.63c.11,0,.21,0,.32-.01v-.97h.34v-.64c.11,0,.21,0,.32-.01v-.96h3.88v.64c-.1,0-.19,.01-.3,.02v.62c-.11,0-.21,.01-.33,.02v.64c-.11,0-.2,0-.31,.02v.95c-.12,0-.22,.01-.34,.02v.64c-.11,0-.21,.01-.33,.02v.94c-.11,0-.2,.01-.32,.02v.3h-3.57Z"/>
				<path d="M18.46,16.26v.64c-.1,0-.2,.01-.32,.02v.62c-.11,0-.2,.01-.31,.02v.64c-.11,0-.21,.01-.33,.02v.95c-.11,0-.21,.01-.32,.02v.64h-.33c0,.11-.01,.21-.02,.32h-3.23v-.64h.32v-.64h.32v-.98h.32v-.64h.32v-.98h3.56Z"/>
				<path d="M77.83,26.33c0,.1,.01,.19,.02,.31h.63v.63c.12,0,.22,.01,.33,.02v1.6c-.1,0-.2,.01-.32,.02v.31h-.32v.34h-.31c0,.11-.01,.21-.02,.32h-1.29c0-.11-.01-.2-.02-.31h-.63v-.65c-.11,0-.21-.01-.32-.02v-.62c-.12,0-.21-.01-.33-.02v-.31h.32v-.98h.31c0-.11,.01-.2,.02-.32h.63c0-.12,.01-.21,.02-.32h1.29Z"/>
				<path d="M76.24,25.69c0,.09-.02,.18-.03,.28h-.3v-.28c.11-.03,.22-.04,.33,0,0,0,0,0,0,0Z"/>
			</g>
			<rect width="81.4" height="40.95" style="fill:none;"/>
		</g>
	</g>
</svg>