<?xml version="1.0" encoding="UTF-8"?>
<svg id="Calque_2"
	xmlns="http://www.w3.org/2000/svg" viewBox="0 0 59.3 40.95">
	<g id="Calque_1-2">
		<g>
			<g>
				<path d="M32.87,12.72l6.91-1.85,5.55-7.06-12.37,3.34-7.86,10.02,12.38-3.38,1.49-1.88-6.95,1.86,.82-1.04h.03Zm4.02-5.14l1.5-.44-2.53,3.26-1.52,.38,2.55-3.21Z"/>
				<path d="M13.29,16.54l1.89-2.42-4.49-3.27-5.5,1.49,4.52,3.3-.07,.09L0,28l12.4-3.34,7.84-10.03-6.95,1.91Zm-4.82,7.67l-1.53,.44,4.83-6.2,1.55-.43-.21,.27-4.63,5.92Z"/>
				<path d="M25.38,22.16l-12.4,3.38L1.07,40.7l12.38-3.38,2.51-3.2-1.53-1.11,3.07-.84,7.88-10.02Zm-15.85,14.72l-1.53,.44,2.54-3.26h.04s1.48-.39,1.48-.39l-2.53,3.22Zm4.05-5.14l-1.53,.43,4.87-6.18,1.53-.44-4.87,6.2Z"/>
				<polygon points="32.4 20.26 23.57 31.49 17.08 39.52 11.84 40.95 26.92 21.74 32.4 20.26"/>
				<polygon points="35.37 25.04 39.41 19.9 37.93 20.27 37.88 20.28 33.07 26.46 40 24.6 38.48 26.52 26.08 29.87 33.95 19.84 46.36 16.49 40.81 23.56 35.37 25.04"/>
				<polygon points="36.35 15.24 33.43 18.97 14.03 24.21 29.08 5.04 34.5 3.56 22.56 18.76 22.36 19.01 36.35 15.24"/>
				<polygon points="59.3 0 47.39 15.2 35.02 18.53 46.94 3.38 52.36 1.91 42.17 14.89 41.96 15.15 43.5 14.73 53.89 1.48 59.3 0"/>
				<polygon points="37.35 27.95 34.47 31.67 21.94 35.03 24.96 31.33 37.35 27.95"/>
				<polygon points="56.3 17.87 48.43 27.9 36.06 31.24 43.93 21.21 49.35 19.78 43.2 27.58 43 27.83 44.49 27.46 44.53 27.45 50.88 19.35 56.3 17.87"/>
			</g>
			<rect width="59.3" height="40.95" style="fill:none;"/>
		</g>
	</g>
</svg>